mtllib Web_Soup_Carrot.mtl
o Web_Soup_Carrot
usemtl mat_Web_Soup_Carrot
o m_OKD1_recipe_soup_tomato_01
v -0.229709 0.113926 0.231095
v -0.260575 0.113926 0.195898
v 0.001416 0.113892 -0.003593
v -0.286117 0.113926 0.156667
v -0.194148 0.113925 0.261540
v -0.305817 0.113925 0.114201
v -0.154617 0.113924 0.286615
v -0.319272 0.113923 0.069363
v -0.111919 0.113922 0.305809
v -0.326210 0.113920 0.023066
v -0.066924 0.113919 0.318731
v -0.326488 0.113917 -0.023746
v -0.020549 0.113916 0.325118
v -0.320101 0.113914 -0.070122
v 0.026264 0.113912 0.324840
v -0.307179 0.113910 -0.115117
v 0.072560 0.113908 0.317902
v -0.287985 0.113905 -0.157814
v 0.117398 0.113903 0.304447
v -0.262910 0.113901 -0.197346
v 0.159865 0.113898 0.284748
v -0.232465 0.113896 -0.232907
v 0.199096 0.113894 0.259205
v -0.197268 0.113891 -0.263772
v 0.234292 0.113889 0.228339
v -0.158037 0.113886 -0.289315
v 0.264738 0.113884 0.192778
v -0.115571 0.113882 -0.309014
v 0.289813 0.113879 0.153247
v -0.070733 0.113877 -0.322470
v 0.309007 0.113875 0.110549
v -0.024436 0.113873 -0.329407
v 0.321928 0.113871 0.065555
v 0.022376 0.113869 -0.329685
v 0.328315 0.113868 0.019179
v 0.068752 0.113866 -0.323298
v 0.328037 0.113865 -0.027634
v 0.113747 0.113863 -0.310376
v 0.321100 0.113862 -0.073930
v 0.156444 0.113861 -0.291183
v 0.307644 0.113860 -0.118768
v 0.195976 0.113860 -0.266108
v 0.287945 0.113859 -0.161235
v 0.231536 0.113859 -0.235662
v 0.262402 0.113859 -0.200466
vn 0.0001 1.0000 -0.0001
vt 0.267236 0.726496
vt 0.080222 0.584095
vt 0.102255 0.558971
vt 0.061989 0.612099
vt 0.127638 0.537238
vt 0.047927 0.642412
vt 0.155857 0.519339
vt 0.038322 0.674419
vt 0.186335 0.505638
vt 0.033370 0.707466
vt 0.218454 0.496415
vt 0.033172 0.740882
vt 0.251557 0.491855
vt 0.037731 0.773986
vt 0.284973 0.492054
vt 0.046955 0.806104
vt 0.318021 0.497006
vt 0.060656 0.836582
vt 0.350027 0.506611
vt 0.078555 0.864801
vt 0.380340 0.520673
vt 0.100287 0.890185
vt 0.408344 0.538906
vt 0.125411 0.912217
vt 0.433468 0.560938
vt 0.153415 0.930450
vt 0.455201 0.586322
vt 0.183729 0.944512
vt 0.473100 0.614540
vt 0.215735 0.954117
vt 0.486801 0.645019
vt 0.248783 0.959069
vt 0.496025 0.677137
vt 0.282198 0.959267
vt 0.500584 0.710241
vt 0.315302 0.954708
vt 0.500386 0.743657
vt 0.347420 0.945484
vt 0.495433 0.776704
vt 0.377899 0.931784
vt 0.485829 0.808710
vt 0.406117 0.913885
vt 0.471767 0.839024
vt 0.431501 0.892152
vt 0.453534 0.867028
s 0
f 3/1/1 2/2/1 1/3/1
f 4/4/1 2/2/1 3/1/1
f 3/1/1 1/3/1 5/5/1
f 6/6/1 4/4/1 3/1/1
f 3/1/1 5/5/1 7/7/1
f 8/8/1 6/6/1 3/1/1
f 3/1/1 7/7/1 9/9/1
f 10/10/1 8/8/1 3/1/1
f 3/1/1 9/9/1 11/11/1
f 12/12/1 10/10/1 3/1/1
f 3/1/1 11/11/1 13/13/1
f 14/14/1 12/12/1 3/1/1
f 3/1/1 13/13/1 15/15/1
f 16/16/1 14/14/1 3/1/1
f 3/1/1 15/15/1 17/17/1
f 18/18/1 16/16/1 3/1/1
f 3/1/1 17/17/1 19/19/1
f 20/20/1 18/18/1 3/1/1
f 3/1/1 19/19/1 21/21/1
f 22/22/1 20/20/1 3/1/1
f 3/1/1 21/21/1 23/23/1
f 24/24/1 22/22/1 3/1/1
f 3/1/1 23/23/1 25/25/1
f 24/24/1 3/1/1 26/26/1
f 27/27/1 3/1/1 25/25/1
f 26/26/1 3/1/1 28/28/1
f 29/29/1 3/1/1 27/27/1
f 28/28/1 3/1/1 30/30/1
f 31/31/1 3/1/1 29/29/1
f 30/30/1 3/1/1 32/32/1
f 33/33/1 3/1/1 31/31/1
f 32/32/1 3/1/1 34/34/1
f 35/35/1 3/1/1 33/33/1
f 34/34/1 3/1/1 36/36/1
f 37/37/1 3/1/1 35/35/1
f 36/36/1 3/1/1 38/38/1
f 39/39/1 3/1/1 37/37/1
f 38/38/1 3/1/1 40/40/1
f 41/41/1 3/1/1 39/39/1
f 40/40/1 3/1/1 42/42/1
f 43/43/1 3/1/1 41/41/1
f 42/42/1 3/1/1 44/44/1
f 45/45/1 3/1/1 43/43/1
f 44/44/1 3/1/1 45/45/1
o m_ingredients_tomato_salad_01.007
v -0.029541 0.129172 -0.155105
v -0.002694 0.130368 -0.154669
v -0.003676 0.133828 -0.149977
v -0.029007 0.132699 -0.150387
v -0.002162 0.122398 -0.155563
v -0.029357 0.121186 -0.156003
v -0.055218 0.128240 -0.147215
v -0.029007 0.132699 -0.150387
v -0.053233 0.131820 -0.142944
v -0.055368 0.120241 -0.148013
v -0.077211 0.127664 -0.131775
v -0.053233 0.131820 -0.142944
v -0.073984 0.131276 -0.128377
v -0.077646 0.119658 -0.132373
v -0.093367 0.127500 -0.110297
v -0.073984 0.131276 -0.128377
v -0.089229 0.131121 -0.108110
v -0.094012 0.119491 -0.110613
v -0.076880 0.110404 -0.131775
v -0.093153 0.110238 -0.110142
v -0.088825 0.107004 -0.107837
v -0.073442 0.107160 -0.128287
v -0.054730 0.110985 -0.147326
v -0.073442 0.107160 -0.128287
v -0.052503 0.107708 -0.142985
v -0.028869 0.111924 -0.155272
v -0.052503 0.107708 -0.142985
v -0.028058 0.108596 -0.150496
v -0.001829 0.113130 -0.154833
v -0.028058 0.108596 -0.150496
v -0.002497 0.109736 -0.150082
v 0.023743 0.114484 -0.146058
v -0.002497 0.109736 -0.150082
v 0.021675 0.111015 -0.141785
v 0.023559 0.123760 -0.146736
v 0.022698 0.131712 -0.145954
v 0.020280 0.135096 -0.141753
v -0.003676 0.133828 -0.149977
v -0.089229 0.131121 -0.108110
v -0.097472 0.131371 -0.084130
v -0.102105 0.127765 -0.084879
v -0.093367 0.127500 -0.110297
v -0.094012 0.119491 -0.110613
v -0.102865 0.119759 -0.084867
v -0.102570 0.128431 -0.058012
v -0.097472 0.131371 -0.084130
v -0.097912 0.131999 -0.058780
v -0.103334 0.120435 -0.057653
v -0.094716 0.129435 -0.032327
v -0.097912 0.131999 -0.058780
v -0.090501 0.132946 -0.034546
v -0.095377 0.121451 -0.031636
v -0.079310 0.130677 -0.010338
v -0.090501 0.132946 -0.034546
v -0.075965 0.134119 -0.013799
v -0.079772 0.122710 -0.009360
v -0.057863 0.132037 0.005805
v -0.075965 0.134119 -0.013799
v -0.055729 0.135402 0.001432
v -0.058046 0.124088 0.006993
v -0.078994 0.113439 -0.009470
v -0.057394 0.114809 0.006787
v -0.055021 0.111323 0.002694
v -0.075440 0.110028 -0.012673
v -0.094509 0.112187 -0.031619
v -0.075440 0.110028 -0.012673
v -0.090107 0.108845 -0.033609
v -0.102421 0.111176 -0.057487
v -0.090107 0.108845 -0.033609
v -0.097585 0.107889 -0.058062
v -0.101953 0.110504 -0.084545
v -0.097585 0.107889 -0.058062
v -0.097143 0.107255 -0.083639
v -0.093153 0.110238 -0.110142
v -0.097143 0.107255 -0.083639
v -0.088825 0.107004 -0.107837
v -0.055729 0.135402 0.001432
v -0.031773 0.136670 0.009656
v -0.032473 0.133380 0.014520
v -0.057863 0.132037 0.005805
v -0.058046 0.124088 0.006993
v -0.032327 0.125449 0.015821
v -0.005625 0.134577 0.014954
v -0.031773 0.136670 0.009656
v -0.006441 0.137799 0.010064
v -0.005130 0.126662 0.016260
v 0.020053 0.135509 0.007065
v -0.006441 0.137799 0.010064
v 0.017785 0.138679 0.002621
v 0.020880 0.127605 0.008270
v 0.042046 0.136085 -0.008375
v 0.017785 0.138679 0.002621
v 0.038535 0.139222 -0.011947
v 0.043159 0.128190 -0.007371
v 0.058202 0.136249 -0.029854
v 0.038535 0.139222 -0.011947
v 0.053778 0.139377 -0.032212
v 0.059524 0.128355 -0.029127
v 0.043229 0.118888 -0.007491
v 0.059501 0.119054 -0.029126
v 0.055475 0.115334 -0.031254
v 0.040094 0.115178 -0.010806
v 0.021079 0.118308 0.008058
v 0.040094 0.115178 -0.010806
v 0.019156 0.114630 0.003893
v -0.004782 0.117369 0.016003
v 0.019156 0.114630 0.003893
v -0.005289 0.113742 0.011404
v -0.031822 0.116163 0.015566
v -0.005289 0.113742 0.011404
v -0.030849 0.112602 0.010991
v -0.057394 0.114809 0.006787
v -0.030849 0.112602 0.010991
v -0.055021 0.111323 0.002694
v 0.053778 0.139377 -0.032212
v 0.062022 0.139127 -0.056193
v 0.066940 0.135984 -0.055271
v 0.058202 0.136249 -0.029854
v 0.059524 0.128355 -0.029127
v 0.068377 0.128089 -0.054876
v 0.067406 0.135318 -0.082137
v 0.062022 0.139127 -0.056193
v 0.062461 0.138499 -0.081542
v 0.068847 0.127413 -0.082089
v 0.059551 0.134314 -0.107823
v 0.062461 0.138499 -0.081542
v 0.055049 0.137551 -0.105774
v 0.060889 0.126396 -0.108109
v 0.044145 0.133072 -0.129812
v 0.055049 0.137551 -0.105774
v 0.040516 0.136379 -0.126523
v 0.045284 0.125137 -0.130383
v 0.022698 0.131712 -0.145954
v 0.040516 0.136379 -0.126523
v 0.020280 0.135096 -0.141753
v 0.023559 0.123760 -0.146736
v 0.045344 0.115855 -0.129799
v 0.023743 0.114484 -0.146058
v 0.021675 0.111015 -0.141785
v 0.042092 0.112310 -0.126416
v 0.060859 0.117106 -0.107650
v 0.042092 0.112310 -0.126416
v 0.056758 0.113492 -0.105480
v 0.068770 0.118118 -0.081783
v 0.056758 0.113492 -0.105480
v 0.064236 0.114448 -0.081028
v 0.068302 0.118788 -0.054724
v 0.064236 0.114448 -0.081028
v 0.063793 0.115083 -0.055452
v 0.059501 0.119054 -0.029126
v 0.063793 0.115083 -0.055452
v 0.055475 0.115334 -0.031254
v -0.088825 0.107004 -0.107837
v -0.097143 0.107255 -0.083639
v -0.016674 0.111169 -0.069545
v -0.097585 0.107889 -0.058062
v -0.090107 0.108845 -0.033609
v -0.075440 0.110028 -0.012673
v -0.055021 0.111323 0.002694
v -0.030849 0.112602 0.010991
v -0.005289 0.113742 0.011404
v 0.019156 0.114630 0.003893
v 0.040094 0.115178 -0.010806
v 0.055475 0.115334 -0.031254
v 0.063793 0.115083 -0.055452
v -0.073442 0.107160 -0.128287
v -0.052503 0.107708 -0.142985
v -0.028058 0.108596 -0.150496
v -0.002497 0.109736 -0.150082
v 0.021675 0.111015 -0.141785
v 0.042092 0.112310 -0.126416
v 0.056758 0.113492 -0.105480
v 0.064236 0.114448 -0.081028
v -0.006441 0.137799 0.010064
v -0.031773 0.136670 0.009656
v -0.017725 0.135249 -0.070161
v -0.055729 0.135402 0.001432
v -0.075965 0.134119 -0.013799
v -0.090501 0.132946 -0.034546
v -0.097912 0.131999 -0.058780
v -0.097472 0.131371 -0.084130
v -0.089229 0.131121 -0.108110
v -0.073984 0.131276 -0.128377
v -0.053233 0.131820 -0.142944
v -0.029007 0.132699 -0.150387
v -0.003676 0.133828 -0.149977
v 0.017785 0.138679 0.002621
v 0.038535 0.139222 -0.011947
v 0.053778 0.139377 -0.032212
v 0.062022 0.139127 -0.056193
v 0.062461 0.138499 -0.081542
v 0.055049 0.137551 -0.105774
v 0.040516 0.136379 -0.126523
v 0.020280 0.135096 -0.141753
vn -0.0284 0.9931 -0.1136
vn 0.1362 0.4241 -0.8953
vn -0.1443 0.4119 -0.8997
vn -0.0564 0.9919 -0.1140
vn -0.1442 0.4120 -0.8997
vn -0.1443 0.4120 -0.8997
vn 0.1716 0.0174 -0.9850
vn -0.1408 0.0036 -0.9900
vn -0.4126 0.4026 -0.8171
vn -0.4126 0.4025 -0.8172
vn -0.4125 0.4027 -0.8171
vn -0.0832 0.9909 -0.1059
vn -0.0564 0.9919 -0.1141
vn -0.4395 -0.0073 -0.8982
vn -0.1408 0.0035 -0.9900
vn -0.6423 0.3969 -0.6557
vn -0.4395 -0.0072 -0.8982
vn -0.6422 0.3969 -0.6557
vn -0.1061 0.9903 -0.0897
vn -0.0831 0.9909 -0.1058
vn -0.6953 -0.0139 -0.7186
vn -0.8109 0.3954 -0.4313
vn -0.6952 -0.0139 -0.7187
vn -0.1061 0.9903 -0.0898
vn -0.8109 0.3955 -0.4313
vn -0.1229 0.9901 -0.0673
vn -0.1060 0.9903 -0.0897
vn -0.8832 -0.0157 -0.4687
vn -0.8109 0.3955 -0.4314
vn -0.8832 -0.0158 -0.4687
vn -0.6331 -0.4007 -0.6623
vn -0.8089 -0.4025 -0.4285
vn -0.6331 -0.4006 -0.6623
vn -0.8089 -0.4025 -0.4286
vn -0.0368 -0.9992 -0.0175
vn -0.0196 -0.9990 -0.0404
vn -0.3939 -0.3943 -0.8303
vn -0.3938 -0.3942 -0.8304
vn 0.0037 -0.9984 -0.0568
vn -0.1144 -0.3840 -0.9162
vn -0.3938 -0.3943 -0.8303
vn 0.0312 -0.9974 -0.0652
vn 0.0038 -0.9984 -0.0568
vn 0.1778 -0.3708 -0.9115
vn 0.1777 -0.3708 -0.9115
vn 0.0599 -0.9961 -0.0649
vn 0.1778 -0.3709 -0.9115
vn 0.1777 -0.3709 -0.9115
vn 0.4540 -0.3561 -0.8167
vn 0.4541 -0.3561 -0.8167
vn 0.0598 -0.9961 -0.0648
vn 0.0869 -0.9947 -0.0555
vn 0.0597 -0.9961 -0.0648
vn 0.4669 0.0330 -0.8837
vn 0.1363 0.4241 -0.8953
vn 0.4016 0.4379 -0.8043
vn 0.4670 0.0330 -0.8837
vn -0.0020 0.9945 -0.1045
vn 0.4017 0.4379 -0.8043
vn 0.1362 0.4242 -0.8953
vn -0.0284 0.9931 -0.1137
vn -0.0019 0.9945 -0.1046
vn -0.9021 0.3984 -0.1659
vn -0.1319 0.9904 -0.0408
vn -0.9021 0.3983 -0.1659
vn -0.9848 -0.0126 -0.1731
vn -0.9070 0.4053 0.1147
vn -0.1319 0.9904 -0.0409
vn -0.1325 0.9911 -0.0129
vn -0.1320 0.9904 -0.0409
vn -0.9902 -0.0050 0.1394
vn -0.8250 0.4155 0.3830
vn -0.9070 0.4053 0.1146
vn -0.8249 0.4157 0.3830
vn -0.8250 0.4156 0.3830
vn -0.1243 0.9921 0.0138
vn -0.1325 0.9911 -0.0128
vn -0.8989 0.0067 0.4382
vn -0.6642 0.4283 0.6127
vn -0.8250 0.4156 0.3829
vn -0.6642 0.4284 0.6127
vn -0.1242 0.9922 0.0139
vn -0.1082 0.9934 0.0368
vn -0.7197 0.0211 0.6940
vn -0.4402 0.4423 0.7814
vn -0.7197 0.0211 0.6939
vn -0.1082 0.9934 0.0369
vn -0.4402 0.4424 0.7814
vn -0.0859 0.9949 0.0536
vn -0.4702 0.0369 0.8818
vn -0.6559 -0.3679 0.6591
vn -0.4226 -0.3530 0.8348
vn -0.4227 -0.3530 0.8347
vn -0.6559 -0.3678 0.6591
vn 0.0010 -0.9943 0.1064
vn -0.6560 -0.3678 0.6591
vn -0.0219 -0.9958 0.0891
vn 0.0010 -0.9943 0.1063
vn -0.8236 -0.3814 0.4198
vn -0.7196 0.0211 0.6940
vn -0.8235 -0.3815 0.4199
vn -0.8236 -0.3815 0.4198
vn -0.0383 -0.9971 0.0657
vn -0.9090 -0.3925 0.1403
vn -0.9090 -0.3924 0.1404
vn -0.9090 -0.3925 0.1404
vn -0.0467 -0.9982 0.0383
vn -0.0384 -0.9971 0.0657
vn -0.9040 -0.3997 -0.1520
vn -0.0462 -0.9989 0.0096
vn -0.9039 -0.3998 -0.1520
vn -0.1749 0.4560 0.8726
vn -0.0594 0.9963 0.0628
vn -0.0859 0.9949 0.0537
vn -0.1750 0.4560 0.8726
vn -0.1749 0.0525 0.9832
vn 0.1056 0.4682 0.8773
vn 0.1057 0.4682 0.8773
vn -0.0594 0.9963 0.0627
vn -0.0315 0.9975 0.0632
vn 0.1375 0.0665 0.9883
vn 0.3740 0.4776 0.7950
vn -0.0315 0.9975 0.0631
vn -0.0047 0.9985 0.0549
vn -0.0314 0.9975 0.0632
vn 0.4362 0.0773 0.8965
vn 0.1374 0.0665 0.9883
vn 0.6040 0.4834 0.6337
vn -0.0047 0.9985 0.0550
vn 0.6039 0.4834 0.6337
vn 0.0182 0.9991 0.0389
vn 0.6920 0.0838 0.7170
vn 0.4362 0.0771 0.8965
vn 0.7730 0.4848 0.4092
vn 0.0351 0.9992 0.0165
vn 0.8801 0.0857 0.4670
vn 0.6921 0.0838 0.7170
vn 0.6646 -0.3085 0.6806
vn 0.8405 -0.3066 0.4468
vn 0.8800 0.0857 0.4671
vn 0.6646 -0.3085 0.6805
vn 0.8405 -0.3066 0.4467
vn 0.1248 -0.9898 0.0683
vn 0.6647 -0.3085 0.6805
vn 0.1075 -0.9900 0.0913
vn 0.4362 0.0772 0.8965
vn 0.4252 -0.3149 0.8485
vn 0.4253 -0.3149 0.8485
vn 0.1075 -0.9900 0.0912
vn 0.0841 -0.9906 0.1077
vn 0.1459 -0.3250 0.9344
vn 0.1458 -0.3252 0.9343
vn 0.1459 -0.3251 0.9343
vn 0.0567 -0.9916 0.1161
vn 0.0840 -0.9906 0.1077
vn 0.1375 0.0664 0.9883
vn -0.1463 -0.3383 0.9296
vn 0.1459 -0.3252 0.9343
vn 0.0280 -0.9929 0.1157
vn 0.0566 -0.9916 0.1161
vn -0.1464 -0.3383 0.9296
vn -0.4225 -0.3530 0.8348
vn 0.8644 0.4819 0.1436
vn 0.0442 0.9990 -0.0100
vn 0.7729 0.4848 0.4093
vn 0.8643 0.4819 0.1436
vn 0.8643 0.4820 0.1436
vn 0.9817 0.0826 0.1713
vn 0.8643 0.4820 0.1435
vn 0.8692 0.4750 -0.1373
vn 0.0441 0.9990 -0.0100
vn 0.0447 0.9983 -0.0380
vn 0.0443 0.9990 -0.0100
vn 0.9871 0.0748 -0.1412
vn 0.7871 0.4646 -0.4058
vn 0.9871 0.0749 -0.1412
vn 0.7871 0.4645 -0.4058
vn 0.7870 0.4646 -0.4059
vn 0.0365 0.9972 -0.0648
vn 0.8957 0.0631 -0.4401
vn 0.7870 0.4646 -0.4058
vn 0.6259 0.4518 -0.6357
vn 0.8958 0.0631 -0.4400
vn 0.0204 0.9959 -0.0876
vn 0.0365 0.9972 -0.0647
vn 0.7165 0.0488 -0.6959
vn 0.7165 0.0487 -0.6959
vn 0.4016 0.4379 -0.8044
vn 0.0205 0.9959 -0.0877
vn -0.0020 0.9945 -0.1046
vn 0.0204 0.9959 -0.0877
vn 0.6875 -0.3413 -0.6410
vn 0.0869 -0.9947 -0.0556
vn 0.1097 -0.9932 -0.0383
vn 0.8551 -0.3276 -0.4017
vn 0.8551 -0.3277 -0.4017
vn 0.6875 -0.3412 -0.6410
vn 0.8552 -0.3277 -0.4017
vn 0.1098 -0.9932 -0.0383
vn 0.1262 -0.9919 -0.0149
vn 0.1098 -0.9932 -0.0384
vn 0.9406 -0.3167 -0.1223
vn 0.1263 -0.9919 -0.0148
vn 0.9406 -0.3168 -0.1222
vn 0.1346 -0.9908 0.0126
vn 0.9355 -0.3095 0.1702
vn 0.9406 -0.3167 -0.1222
vn 0.9356 -0.3095 0.1702
vn 0.1346 -0.9908 0.0125
vn 0.1341 -0.9901 0.0413
vn 0.1345 -0.9908 0.0125
vn 0.9817 0.0826 0.1714
vn 0.8405 -0.3067 0.4467
vn 0.1341 -0.9901 0.0412
vn 0.8404 -0.3066 0.4468
vn 0.1248 -0.9898 0.0684
vn 0.0441 -0.9987 0.0255
vn -0.0369 -0.9992 -0.0174
vn -0.0467 -0.9982 0.0384
vn 0.1076 -0.9900 0.0913
vn 0.0441 -0.9987 0.0256
vn 0.1342 -0.9901 0.0412
vn -0.0196 -0.9990 -0.0403
vn 0.0312 -0.9974 -0.0653
vn 0.0311 -0.9974 -0.0652
vn 0.1263 -0.9919 -0.0149
vn 0.1347 -0.9908 0.0126
vn 0.1342 -0.9901 0.0413
vn -0.0441 0.9987 -0.0255
vn -0.0441 0.9987 -0.0256
vn -0.1083 0.9934 0.0368
vn -0.1324 0.9911 -0.0129
vn -0.1228 0.9901 -0.0674
vn -0.0314 0.9975 0.0631
vn 0.0442 0.9990 -0.0101
vn 0.0205 0.9959 -0.0876
vn -0.0019 0.9945 -0.1045
vt 0.884893 0.614852
vt 0.885815 0.621865
vt 0.850394 0.623697
vt 0.851223 0.617720
vt 0.886163 0.635799
vt 0.850260 0.636506
vt 0.814760 0.624988
vt 0.849685 0.617223
vt 0.815938 0.618922
vt 0.814167 0.637798
vt 0.779421 0.624303
vt 0.814208 0.619009
vt 0.780916 0.617384
vt 0.778388 0.638235
vt 0.744594 0.620338
vt 0.779117 0.617786
vt 0.746360 0.612160
vt 0.742681 0.636516
vt 0.778468 0.644573
vt 0.742893 0.644067
vt 0.744010 0.648653
vt 0.777698 0.648751
vt 0.814090 0.643640
vt 0.779316 0.648574
vt 0.813219 0.647370
vt 0.850016 0.642214
vt 0.815073 0.647013
vt 0.848908 0.646122
vt 0.885670 0.642045
vt 0.850583 0.645990
vt 0.884467 0.646246
vt 0.920825 0.644798
vt 0.886141 0.646114
vt 0.919430 0.649582
vt 0.921730 0.637406
vt 0.920976 0.620931
vt 0.919837 0.612637
vt 0.886488 0.615393
vt 0.885861 0.621665
vt 0.886411 0.614542
vt 0.919990 0.612708
vt 0.921146 0.620463
vt 0.921839 0.637071
vt 0.886063 0.635666
vt 0.850350 0.623609
vt 0.884838 0.615124
vt 0.851169 0.617071
vt 0.850330 0.636509
vt 0.814885 0.625036
vt 0.849595 0.617652
vt 0.816018 0.618566
vt 0.814235 0.637801
vt 0.779422 0.624621
vt 0.814220 0.618967
vt 0.780804 0.617611
vt 0.778389 0.638553
vt 0.744483 0.620565
vt 0.779208 0.617991
vt 0.746270 0.612590
vt 0.742794 0.636923
vt 0.778447 0.644688
vt 0.743097 0.644362
vt 0.744033 0.649173
vt 0.777676 0.648867
vt 0.814361 0.643621
vt 0.779385 0.648577
vt 0.813232 0.647327
vt 0.850141 0.642262
vt 0.815164 0.647218
vt 0.848921 0.646080
vt 0.885515 0.641868
vt 0.850629 0.645791
vt 0.884429 0.645979
vt 0.920884 0.644239
vt 0.886272 0.645982
vt 0.919573 0.649091
vt 0.885731 0.621924
vt 0.886394 0.614891
vt 0.919881 0.613168
vt 0.921038 0.620924
vt 0.921618 0.637442
vt 0.885933 0.635925
vt 0.850254 0.623711
vt 0.884763 0.615428
vt 0.851185 0.617262
vt 0.850121 0.636520
vt 0.814710 0.624890
vt 0.849555 0.617799
vt 0.815900 0.618465
vt 0.814117 0.637699
vt 0.779310 0.624340
vt 0.814214 0.618957
vt 0.780748 0.617376
vt 0.778193 0.638204
vt 0.744488 0.620195
vt 0.779096 0.617710
vt 0.746220 0.612174
vt 0.742569 0.636552
vt 0.778272 0.644542
vt 0.742844 0.643969
vt 0.743898 0.648690
vt 0.777501 0.648721
vt 0.814040 0.643542
vt 0.779266 0.648477
vt 0.813079 0.647384
vt 0.849842 0.642386
vt 0.814865 0.647342
vt 0.848802 0.645979
vt 0.885496 0.642217
vt 0.850522 0.646252
vt 0.884388 0.646126
vt 0.920798 0.644902
vt 0.885962 0.646465
vt 0.919442 0.649350
vt 0.885718 0.621829
vt 0.886583 0.614774
vt 0.919757 0.612983
vt 0.920823 0.620850
vt 0.921605 0.637347
vt 0.886010 0.635718
vt 0.850296 0.623660
vt 0.884785 0.615175
vt 0.851206 0.617010
vt 0.850052 0.636380
vt 0.814607 0.624907
vt 0.849632 0.617592
vt 0.815741 0.618437
vt 0.813957 0.637671
vt 0.779325 0.624267
vt 0.814167 0.619018
vt 0.780707 0.617258
vt 0.778179 0.638109
vt 0.744565 0.619987
vt 0.779020 0.617749
vt 0.746151 0.612034
vt 0.742584 0.636480
vt 0.778259 0.644447
vt 0.742977 0.643807
vt 0.743913 0.648617
vt 0.777488 0.648625
vt 0.814173 0.643380
vt 0.779107 0.648448
vt 0.813178 0.647379
vt 0.849863 0.642133
vt 0.814977 0.646977
vt 0.848868 0.646132
vt 0.885461 0.641919
vt 0.850486 0.645954
vt 0.884286 0.646142
vt 0.920785 0.644807
vt 0.885904 0.645965
vt 0.919249 0.649479
vt 0.819144 0.797375
vt 0.774562 0.906264
vt 0.810227 0.914958
vt 0.742910 0.887094
vt 0.718836 0.859231
vt 0.704570 0.825126
vt 0.701895 0.788458
vt 0.710365 0.752570
vt 0.729535 0.721141
vt 0.757621 0.697122
vt 0.791503 0.682954
vt 0.828060 0.679986
vt 0.864171 0.688513
vt 0.846784 0.911837
vt 0.881112 0.897794
vt 0.908752 0.873720
vt 0.927922 0.842290
vt 0.936838 0.806402
vt 0.933717 0.769678
vt 0.919451 0.735685
vt 0.895378 0.707710
vt 0.711257 0.752905
vt 0.730427 0.721698
vt 0.702787 0.788458
vt 0.705907 0.824792
vt 0.719727 0.858562
vt 0.743801 0.886203
vt 0.775008 0.905373
vt 0.810227 0.913620
vt 0.846784 0.910722
vt 0.880666 0.896679
vt 0.908306 0.872940
vt 0.927030 0.841733
vt 0.758067 0.697930
vt 0.791949 0.683901
vt 0.828060 0.680962
vt 0.863725 0.689404
vt 0.894932 0.708435
vt 0.918560 0.736131
vt 0.932826 0.769846
vt 0.935501 0.806291
s 0
f 48/46/2 47/47/3 46/48/4
f 49/49/5 48/46/2 46/48/6
f 46/48/7 47/47/3 50/50/8
f 51/51/9 46/48/4 50/50/8
f 52/52/10 46/48/7 51/51/9
f 46/48/7 52/52/11 53/53/5
f 52/52/12 54/54/13 53/53/14
f 55/55/15 52/52/10 51/51/16
f 56/56/17 52/52/10 55/55/18
f 52/52/10 56/56/17 57/57/13
f 56/56/19 58/58/20 57/57/21
f 59/59/22 56/56/19 55/55/18
f 60/60/23 56/56/19 59/59/24
f 56/56/19 60/60/23 61/61/25
f 60/60/26 62/62/27 61/61/28
f 63/63/29 60/60/30 59/59/22
f 63/63/31 59/59/22 64/64/32
f 65/65/33 63/63/29 64/64/34
f 65/65/35 64/64/32 66/66/36
f 64/64/34 67/67/37 66/66/36
f 59/59/22 55/55/18 68/68/38
f 64/64/34 59/59/22 68/68/39
f 64/64/34 68/68/39 69/69/37
f 68/68/38 70/70/40 69/69/37
f 68/68/39 55/55/18 71/71/41
f 68/68/42 71/71/41 72/72/40
f 71/71/41 73/73/43 72/72/44
f 55/55/15 51/51/9 71/71/41
f 71/71/41 51/51/9 74/74/45
f 71/71/41 74/74/46 75/75/43
f 74/74/45 76/76/47 75/75/43
f 51/51/9 50/50/8 74/74/48
f 74/74/49 50/50/8 77/77/50
f 74/74/45 77/77/51 78/78/52
f 77/77/50 79/79/53 78/78/54
f 50/50/8 80/80/55 77/77/50
f 50/50/8 47/47/3 80/80/55
f 47/47/56 81/81/57 80/80/58
f 82/82/59 81/81/60 47/47/61
f 83/83/62 82/82/63 47/47/56
f 86/84/64 85/85/65 84/86/27
f 87/87/30 86/84/64 84/86/27
f 86/84/66 87/87/23 88/88/31
f 89/89/67 86/84/64 88/88/29
f 90/90/68 86/84/66 89/89/67
f 86/84/66 90/90/68 91/91/69
f 90/90/68 92/92/70 91/91/71
f 93/93/72 90/90/68 89/89/67
f 94/94/73 90/90/74 93/93/72
f 90/90/68 94/94/75 95/95/70
f 94/94/76 96/96/77 95/95/78
f 97/97/79 94/94/76 93/93/72
f 98/98/80 94/94/81 97/97/79
f 94/94/81 98/98/82 99/99/83
f 98/98/82 100/100/84 99/99/83
f 101/101/85 98/98/82 97/97/79
f 102/102/86 98/98/82 101/101/87
f 98/98/82 102/102/86 103/103/88
f 102/102/89 104/104/90 103/103/84
f 105/105/91 102/102/86 101/101/85
f 105/105/91 101/101/87 106/106/92
f 107/107/93 105/105/91 106/106/92
f 107/107/94 106/106/95 108/108/96
f 106/106/97 109/109/98 108/108/99
f 101/101/85 97/97/79 110/110/100
f 106/106/97 101/101/101 110/110/100
f 106/106/92 110/110/102 111/111/98
f 110/110/103 112/112/104 111/111/98
f 110/110/100 97/97/79 113/113/105
f 110/110/103 113/113/106 114/114/104
f 113/113/107 115/115/108 114/114/109
f 97/97/79 93/93/72 113/113/105
f 113/113/105 93/93/72 116/116/110
f 113/113/107 116/116/110 117/117/108
f 116/116/110 118/118/111 117/117/108
f 93/93/72 89/89/67 116/116/110
f 116/116/110 89/89/67 119/119/33
f 116/116/112 119/119/35 120/120/111
f 119/119/33 121/121/36 120/120/111
f 89/89/67 88/88/29 119/119/33
f 124/122/113 123/123/114 122/124/115
f 125/125/86 124/122/113 122/124/90
f 124/122/116 125/125/86 126/126/91
f 127/127/117 124/122/113 126/126/91
f 128/128/118 124/122/113 127/127/117
f 124/122/113 128/128/119 129/129/120
f 128/128/118 130/130/121 129/129/120
f 131/131/122 128/128/118 127/127/117
f 132/132/123 128/128/118 131/131/122
f 128/128/118 132/132/123 133/133/124
f 132/132/123 134/134/125 133/133/126
f 135/135/127 132/132/123 131/131/128
f 136/136/129 132/132/123 135/135/127
f 132/132/123 136/136/129 137/137/130
f 136/136/131 138/138/132 137/137/130
f 139/139/133 136/136/129 135/135/134
f 140/140/135 136/136/131 139/139/133
f 136/136/129 140/140/135 141/141/132
f 140/140/135 142/142/136 141/141/132
f 143/143/137 140/140/135 139/139/138
f 143/143/137 139/139/138 144/144/139
f 145/145/140 143/143/141 144/144/142
f 145/145/143 144/144/142 146/146/144
f 144/144/145 147/147/146 146/146/144
f 139/139/133 135/135/147 148/148/148
f 144/144/139 139/139/138 148/148/148
f 144/144/142 148/148/149 149/149/150
f 148/148/149 150/150/151 149/149/150
f 148/148/149 135/135/127 151/151/152
f 148/148/149 151/151/153 152/152/151
f 151/151/154 153/153/155 152/152/156
f 135/135/147 131/131/157 151/151/153
f 151/151/153 131/131/122 154/154/158
f 151/151/159 154/154/158 155/155/155
f 154/154/158 156/156/160 155/155/161
f 131/131/122 127/127/117 154/154/158
f 154/154/158 127/127/117 157/157/93
f 154/154/162 157/157/163 158/158/160
f 157/157/94 159/159/96 158/158/160
f 127/127/117 126/126/91 157/157/93
f 162/160/164 161/161/165 160/162/136
f 163/163/166 162/160/167 160/162/136
f 162/160/168 163/163/135 164/164/137
f 165/165/169 162/160/170 164/164/137
f 166/166/171 162/160/164 165/165/169
f 162/160/164 166/166/171 167/167/172
f 166/166/171 168/168/173 167/167/174
f 169/169/175 166/166/171 165/165/169
f 170/170/176 166/166/171 169/169/177
f 166/166/171 170/170/178 171/171/173
f 170/170/179 172/172/180 171/171/173
f 173/173/181 170/170/182 169/169/177
f 174/174/183 170/170/178 173/173/184
f 170/170/178 174/174/183 175/175/180
f 174/174/183 176/176/185 175/175/186
f 177/177/187 174/174/183 173/173/181
f 178/178/57 174/174/183 177/177/188
f 174/174/183 178/178/189 179/179/190
f 178/178/189 180/180/191 179/179/192
f 181/181/55 178/178/60 177/177/187
f 181/181/55 177/177/187 182/182/193
f 183/183/50 181/181/55 182/182/193
f 183/183/51 182/182/193 184/184/194
f 182/182/193 185/185/195 184/184/194
f 177/177/187 173/173/181 186/186/196
f 182/182/193 177/177/188 186/186/197
f 182/182/198 186/186/199 187/187/200
f 186/186/197 188/188/201 187/187/202
f 186/186/197 173/173/184 189/189/203
f 190/190/204 186/186/197 189/189/205
f 191/191/206 190/190/201 189/189/203
f 173/173/184 169/169/175 189/189/203
f 189/189/203 169/169/175 192/192/207
f 189/189/208 192/192/209 193/193/210
f 192/192/207 194/194/211 193/193/212
f 169/169/177 165/165/169 192/192/207
f 192/192/207 165/165/213 195/195/214
f 192/192/209 195/195/140 196/196/215
f 195/195/216 197/197/217 196/196/211
f 165/165/169 164/164/141 195/195/140
f 200/198/218 199/199/111 198/200/219
f 201/201/220 199/199/111 200/198/218
f 202/202/109 201/201/108 200/198/218
f 203/203/98 202/202/109 200/198/218
f 204/204/96 203/203/98 200/198/218
f 205/205/160 204/204/99 200/198/218
f 206/206/155 205/205/160 200/198/218
f 207/207/151 206/206/155 200/198/218
f 208/208/221 207/207/151 200/198/222
f 209/209/217 208/208/221 200/198/222
f 209/209/144 200/198/218 210/210/223
f 200/198/218 198/200/219 211/211/224
f 200/198/218 211/211/37 212/212/44
f 200/198/218 212/212/44 213/213/225
f 200/198/218 213/213/226 214/214/52
f 200/198/218 214/214/52 215/215/53
f 200/198/218 215/215/194 216/216/200
f 200/198/218 216/216/200 217/217/227
f 200/198/218 217/217/227 218/218/228
f 200/198/222 218/218/228 210/210/229
f 221/198/230 220/219/120 219/220/121
f 222/221/90 220/219/120 221/198/230
f 223/222/84 222/221/90 221/198/231
f 224/223/83 223/222/232 221/198/230
f 225/224/78 224/223/83 221/198/230
f 226/225/69 225/224/233 221/198/230
f 227/226/234 226/225/69 221/198/231
f 228/227/25 227/226/27 221/198/230
f 229/228/13 228/227/25 221/198/230
f 230/229/5 229/228/21 221/198/230
f 230/229/5 221/198/230 231/230/2
f 221/198/230 219/220/235 232/231/125
f 221/198/230 232/231/125 233/232/132
f 221/198/230 233/232/132 234/233/136
f 221/198/230 234/233/136 235/234/236
f 221/198/230 235/234/165 236/235/173
f 221/198/231 236/235/173 237/236/186
f 221/198/230 237/236/180 238/237/237
f 221/198/230 238/237/192 239/238/238
f 221/198/230 239/238/63 231/230/2
o m_ingredients_tomato_salad_01.001
v 0.124834 0.125728 0.067835
v 0.101666 0.124681 0.081419
v 0.099821 0.128223 0.077059
v 0.121681 0.129209 0.064241
v 0.102236 0.116693 0.082097
v 0.125704 0.117752 0.068335
v 0.142660 0.126959 0.047756
v 0.121681 0.129209 0.064241
v 0.138500 0.130371 0.045297
v 0.143762 0.118999 0.047997
v 0.153400 0.128256 0.023151
v 0.138500 0.130371 0.045297
v 0.148633 0.131595 0.022084
v 0.154641 0.120313 0.023074
v 0.156002 0.129492 -0.003571
v 0.148633 0.131595 0.022084
v 0.151089 0.132760 -0.003131
v 0.157277 0.121564 -0.003998
v 0.154327 0.111029 0.022539
v 0.156948 0.112272 -0.004375
v 0.152291 0.108694 -0.004250
v 0.149813 0.107518 0.021193
v 0.143511 0.109723 0.047320
v 0.149813 0.107518 0.021193
v 0.139588 0.106283 0.044617
v 0.125557 0.108484 0.067543
v 0.139588 0.106283 0.044617
v 0.122617 0.105110 0.063732
v 0.102223 0.107431 0.081225
v 0.122617 0.105110 0.063732
v 0.100559 0.104116 0.076666
v 0.075794 0.106669 0.087032
v 0.100559 0.104116 0.076666
v 0.075576 0.103394 0.082153
v 0.075653 0.115926 0.087937
v 0.075424 0.123924 0.087184
v 0.075061 0.127509 0.082496
v 0.099821 0.128223 0.077059
v 0.151089 0.132760 -0.003131
v 0.145625 0.133754 -0.027875
v 0.150211 0.130545 -0.029797
v 0.156002 0.129492 -0.003571
v 0.157277 0.121564 -0.003998
v 0.151412 0.122631 -0.030564
v 0.136595 0.131312 -0.052960
v 0.145625 0.133754 -0.027875
v 0.132778 0.134477 -0.049729
v 0.137618 0.123408 -0.054025
v 0.116486 0.131718 -0.070789
v 0.132778 0.134477 -0.049729
v 0.113805 0.134860 -0.066551
v 0.117248 0.123820 -0.072085
v 0.091852 0.131724 -0.081540
v 0.113805 0.134860 -0.066551
v 0.090562 0.134866 -0.076695
v 0.092295 0.123826 -0.082976
v 0.065105 0.131330 -0.084163
v 0.090562 0.134866 -0.076695
v 0.065326 0.134494 -0.079170
v 0.065200 0.123426 -0.085633
v 0.092339 0.114522 -0.082900
v 0.065401 0.114125 -0.085541
v 0.065753 0.110443 -0.080974
v 0.091217 0.110819 -0.078478
v 0.117149 0.114516 -0.072070
v 0.091217 0.110819 -0.078478
v 0.114669 0.110813 -0.068242
v 0.137403 0.114106 -0.054114
v 0.114669 0.110813 -0.068242
v 0.133815 0.110426 -0.051268
v 0.151116 0.113333 -0.030787
v 0.133815 0.110426 -0.051268
v 0.146777 0.109696 -0.029218
v 0.156948 0.112272 -0.004375
v 0.146777 0.109696 -0.029218
v 0.152291 0.108694 -0.004250
v 0.065326 0.134494 -0.079170
v 0.040566 0.133779 -0.073732
v 0.038864 0.130572 -0.078399
v 0.065105 0.131330 -0.084163
v 0.065200 0.123426 -0.085633
v 0.038618 0.122659 -0.079795
v 0.015696 0.129526 -0.064813
v 0.040566 0.133779 -0.073732
v 0.018707 0.132793 -0.060912
v 0.015149 0.121600 -0.066032
v -0.002131 0.128294 -0.044734
v 0.018707 0.132793 -0.060912
v 0.001888 0.131631 -0.041968
v -0.002908 0.120352 -0.045695
v -0.012870 0.126997 -0.020130
v 0.001888 0.131631 -0.041968
v -0.008245 0.130408 -0.018754
v -0.013787 0.119039 -0.020770
v -0.015473 0.125762 0.006593
v -0.008245 0.130408 -0.018754
v -0.010699 0.129242 0.006459
v -0.016423 0.117787 0.006298
v -0.013133 0.109764 -0.021053
v -0.015754 0.108521 0.005863
v -0.010958 0.105144 0.005428
v -0.008482 0.106320 -0.020013
v -0.002317 0.111070 -0.045833
v -0.008482 0.106320 -0.020013
v 0.001743 0.107555 -0.043437
v 0.015638 0.112310 -0.066053
v 0.001743 0.107555 -0.043437
v 0.018713 0.108727 -0.062552
v 0.038972 0.113363 -0.079737
v 0.018713 0.108727 -0.062552
v 0.040770 0.109722 -0.075487
v 0.065401 0.114125 -0.085541
v 0.040770 0.109722 -0.075487
v 0.065753 0.110443 -0.080974
v -0.010699 0.129242 0.006459
v -0.005235 0.128249 0.031203
v -0.009682 0.124709 0.032819
v -0.015473 0.125762 0.006593
v -0.016423 0.117787 0.006298
v -0.010557 0.116722 0.032868
v 0.003934 0.123942 0.055981
v -0.005235 0.128249 0.031203
v 0.007611 0.127526 0.053056
v 0.003235 0.115944 0.056327
v 0.024043 0.123535 0.073811
v 0.007611 0.127526 0.053056
v 0.026585 0.127141 0.069876
v 0.023607 0.115533 0.074388
v 0.048677 0.123529 0.084562
v 0.026585 0.127141 0.069876
v 0.049826 0.127136 0.080023
v 0.048560 0.115526 0.085279
v 0.075424 0.123924 0.087184
v 0.049826 0.127136 0.080023
v 0.075061 0.127509 0.082496
v 0.075653 0.115926 0.087937
v 0.048855 0.106272 0.084390
v 0.075794 0.106669 0.087032
v 0.075576 0.103394 0.082153
v 0.050113 0.103019 0.079655
v 0.024045 0.106278 0.073559
v 0.050113 0.103019 0.079655
v 0.026661 0.103024 0.069418
v 0.003792 0.106689 0.055604
v 0.026661 0.103024 0.069418
v 0.007517 0.103412 0.052445
v -0.009922 0.107461 0.032276
v 0.007517 0.103412 0.052445
v -0.005445 0.104142 0.030395
v -0.015754 0.108521 0.005863
v -0.005445 0.104142 0.030395
v -0.010958 0.105144 0.005428
v 0.152291 0.108694 -0.004250
v 0.146777 0.109696 -0.029218
v 0.070665 0.106919 0.000589
v 0.133815 0.110426 -0.051268
v 0.114669 0.110813 -0.068242
v 0.091217 0.110819 -0.078478
v 0.065753 0.110443 -0.080974
v 0.040770 0.109722 -0.075487
v 0.018713 0.108727 -0.062552
v 0.001743 0.107555 -0.043437
v -0.008482 0.106320 -0.020013
v -0.010958 0.105144 0.005428
v -0.005445 0.104142 0.030395
v 0.149813 0.107518 0.021193
v 0.139588 0.106283 0.044617
v 0.122617 0.105110 0.063732
v 0.100559 0.104116 0.076666
v 0.075576 0.103394 0.082153
v 0.050113 0.103019 0.079655
v 0.026661 0.103024 0.069418
v 0.007517 0.103412 0.052445
v 0.018707 0.132793 -0.060912
v 0.040566 0.133779 -0.073732
v 0.070194 0.131001 0.001664
v 0.065326 0.134494 -0.079170
v 0.090562 0.134866 -0.076695
v 0.113805 0.134860 -0.066551
v 0.132778 0.134477 -0.049729
v 0.145625 0.133754 -0.027875
v 0.151089 0.132760 -0.003131
v 0.148633 0.131595 0.022084
v 0.138500 0.130371 0.045297
v 0.121681 0.129209 0.064241
v 0.099821 0.128223 0.077059
v 0.001888 0.131631 -0.041968
v -0.008245 0.130408 -0.018754
v -0.010699 0.129242 0.006459
v -0.005235 0.128249 0.031203
v 0.007611 0.127526 0.053056
v 0.026585 0.127141 0.069876
v 0.049826 0.127136 0.080023
v 0.075061 0.127509 0.082496
vn 0.0137 0.9918 0.1274
vn 0.3197 0.4091 0.8546
vn 0.5617 0.4204 0.7126
vn 0.0379 0.9928 0.1132
vn 0.5616 0.4205 0.7126
vn 0.5617 0.4205 0.7125
vn 0.3197 0.4091 0.8547
vn 0.3647 0.0007 0.9311
vn 0.6343 0.0129 0.7730
vn 0.7478 0.4337 0.5027
vn 0.5616 0.4204 0.7126
vn 0.5617 0.4205 0.7126
vn 0.7479 0.4336 0.5027
vn 0.0378 0.9929 0.1132
vn 0.0565 0.9941 0.0923
vn 0.8416 0.0273 0.5394
vn 0.6342 0.0129 0.7730
vn 0.8599 0.4475 0.2456
vn 0.0676 0.9955 0.0667
vn 0.0564 0.9941 0.0923
vn 0.9665 0.0424 0.2532
vn 0.8870 0.4606 -0.0335
vn 0.9665 0.0424 0.2533
vn 0.8869 0.4607 -0.0335
vn 0.0677 0.9955 0.0667
vn 0.0703 0.9968 0.0388
vn 0.0675 0.9955 0.0667
vn 0.9967 0.0569 -0.0577
vn 0.8869 0.4607 -0.0334
vn 0.9967 0.0568 -0.0576
vn 0.9113 -0.3481 0.2198
vn 0.9396 -0.3347 -0.0710
vn 0.9114 -0.3480 0.2198
vn 0.9397 -0.3347 -0.0710
vn 0.1104 -0.9927 -0.0494
vn 0.1076 -0.9940 -0.0210
vn 0.7945 -0.3621 0.4875
vn 0.7945 -0.3620 0.4876
vn 0.7945 -0.3620 0.4875
vn 0.7946 -0.3620 0.4875
vn 0.0963 -0.9953 0.0052
vn 0.1077 -0.9940 -0.0210
vn 0.6005 -0.3753 0.7061
vn 0.0962 -0.9953 0.0052
vn 0.6005 -0.3753 0.7060
vn 0.0772 -0.9967 0.0266
vn 0.0961 -0.9954 0.0052
vn 0.3484 -0.3865 0.8539
vn 0.3485 -0.3865 0.8539
vn 0.0525 -0.9978 0.0412
vn 0.0771 -0.9967 0.0266
vn 0.3484 -0.3866 0.8539
vn 0.0629 -0.3947 0.9167
vn 0.0628 -0.3947 0.9167
vn 0.0525 -0.9978 0.0411
vn 0.0245 -0.9986 0.0473
vn 0.0526 -0.9978 0.0411
vn 0.0595 -0.0081 0.9982
vn 0.0455 0.4010 0.9150
vn 0.0595 -0.0082 0.9982
vn -0.0136 0.9910 0.1334
vn 0.0454 0.4010 0.9150
vn 0.3197 0.4092 0.8546
vn 0.0137 0.9917 0.1275
vn -0.0136 0.9910 0.1335
vn 0.8264 0.4718 -0.3073
vn 0.0642 0.9979 0.0115
vn 0.8264 0.4717 -0.3073
vn 0.9293 0.0691 -0.3627
vn 0.6842 0.4798 -0.5492
vn 0.9293 0.0692 -0.3627
vn 0.0642 0.9979 0.0116
vn 0.0501 0.9987 -0.0126
vn 0.0643 0.9979 0.0115
vn 0.7709 0.0779 -0.6321
vn 0.4743 0.4838 -0.7355
vn 0.7709 0.0780 -0.6321
vn 0.4742 0.4839 -0.7355
vn 0.4742 0.4838 -0.7356
vn 0.0292 0.9991 -0.0312
vn 0.0501 0.9987 -0.0127
vn 0.5371 0.0827 -0.8395
vn 0.4742 0.4838 -0.7355
vn 0.7710 0.0779 -0.6321
vn 0.2170 0.4837 -0.8479
vn 0.0291 0.9991 -0.0312
vn 0.0035 0.9991 -0.0424
vn 0.2506 0.0827 -0.9646
vn -0.0623 0.4793 -0.8754
vn 0.0034 0.9991 -0.0424
vn -0.0623 0.4794 -0.8754
vn -0.0244 0.9987 -0.0451
vn -0.0606 0.0781 -0.9951
vn 0.2416 -0.3103 -0.9194
vn -0.0494 -0.3145 -0.9480
vn -0.0493 -0.3145 -0.9480
vn 0.0135 -0.9907 -0.1355
vn 0.2417 -0.3103 -0.9194
vn 0.0420 -0.9903 -0.1327
vn 0.5097 -0.3104 -0.8024
vn 0.2505 0.0827 -0.9646
vn 0.5096 -0.3104 -0.8025
vn 0.0683 -0.9903 -0.1212
vn 0.7285 -0.3150 -0.6084
vn 0.7285 -0.3149 -0.6084
vn 0.0682 -0.9903 -0.1212
vn 0.7284 -0.3150 -0.6084
vn 0.0897 -0.9907 -0.1023
vn 0.7710 0.0780 -0.6321
vn 0.8766 -0.3233 -0.3564
vn 0.0897 -0.9907 -0.1022
vn 0.1042 -0.9915 -0.0775
vn 0.8766 -0.3232 -0.3564
vn 0.9397 -0.3347 -0.0711
vn 0.8766 -0.3234 -0.3564
vn 0.1042 -0.9915 -0.0774
vn 0.9396 -0.3347 -0.0711
vn 0.1104 -0.9927 -0.0495
vn 0.9294 0.0691 -0.3627
vn -0.3366 0.4711 -0.8153
vn -0.0518 0.9979 -0.0392
vn -0.0244 0.9987 -0.0452
vn -0.3659 0.0692 -0.9281
vn -0.5787 0.4598 -0.6735
vn -0.3659 0.0693 -0.9281
vn -0.5788 0.4598 -0.6735
vn -0.0759 0.9968 -0.0250
vn -0.6354 0.0571 -0.7701
vn -0.7651 0.4466 -0.4638
vn -0.7651 0.4467 -0.4638
vn -0.0945 0.9955 -0.0040
vn -0.8428 0.0428 -0.5365
vn -0.8775 0.4328 -0.2067
vn -0.0945 0.9955 -0.0041
vn -0.1057 0.9942 0.0216
vn -0.9678 0.0275 -0.2503
vn -0.8428 0.0426 -0.5365
vn -0.9048 0.4196 0.0727
vn -0.9048 0.4197 0.0727
vn -0.1084 0.9929 0.0494
vn -0.9981 0.0131 0.0606
vn -0.9981 0.0132 0.0606
vn -0.8980 -0.3612 -0.2513
vn -0.9264 -0.3746 0.0396
vn -0.9981 0.0131 0.0605
vn -0.8980 -0.3613 -0.2512
vn -0.9264 -0.3746 0.0397
vn -0.0725 -0.9966 -0.0387
vn -0.8980 -0.3612 -0.2511
vn -0.0697 -0.9953 -0.0672
vn -0.7811 -0.3472 -0.5190
vn -0.8980 -0.3612 -0.2512
vn -0.7811 -0.3472 -0.5189
vn -0.0696 -0.9953 -0.0672
vn -0.0582 -0.9939 -0.0934
vn -0.5871 -0.3338 -0.7374
vn -0.5871 -0.3340 -0.7374
vn -0.5871 -0.3339 -0.7374
vn -0.0392 -0.9926 -0.1149
vn -0.0582 -0.9939 -0.0935
vn -0.8428 0.0427 -0.5365
vn -0.6354 0.0570 -0.7701
vn -0.3349 -0.3227 -0.8853
vn -0.3350 -0.3227 -0.8852
vn -0.0392 -0.9926 -0.1148
vn -0.0145 -0.9915 -0.1294
vn -0.0391 -0.9926 -0.1148
vn -0.3658 0.0693 -0.9281
vn -0.3658 0.0692 -0.9281
vn -0.0495 -0.3145 -0.9480
vn 0.0134 -0.9907 -0.1355
vn -0.8443 0.4085 0.3468
vn -0.1023 0.9918 0.0768
vn -0.9048 0.4196 0.0726
vn -0.8443 0.4085 0.3467
vn -0.9307 0.0008 0.3658
vn -0.8442 0.4086 0.3468
vn -0.7019 0.4005 0.5890
vn -0.9307 0.0008 0.3657
vn -0.1023 0.9918 0.0767
vn -0.0882 0.9910 0.1009
vn -0.1024 0.9918 0.0768
vn -0.7723 -0.0081 0.6352
vn -0.9307 0.0009 0.3658
vn -0.4917 0.3964 0.7753
vn -0.4917 0.3963 0.7754
vn -0.4916 0.3964 0.7754
vn -0.0672 0.9906 0.1195
vn -0.0882 0.9910 0.1010
vn -0.5383 -0.0129 0.8426
vn -0.2341 0.3965 0.8877
vn -0.4917 0.3963 0.7753
vn -0.0672 0.9906 0.1196
vn -0.0416 0.9906 0.1307
vn -0.2517 -0.0128 0.9677
vn 0.0456 0.4009 0.9150
vn -0.0416 0.9905 0.1307
vn -0.0415 0.9906 0.1307
vn -0.2282 -0.3989 0.8881
vn -0.2282 -0.3990 0.8881
vn 0.0246 -0.9986 0.0473
vn -0.0040 -0.9990 0.0445
vn -0.4963 -0.3988 0.7711
vn -0.2517 -0.0129 0.9677
vn -0.4964 -0.3988 0.7711
vn -0.0303 -0.9990 0.0330
vn -0.7151 -0.3943 0.5772
vn -0.0304 -0.9990 0.0330
vn -0.7151 -0.3944 0.5771
vn -0.0518 -0.9986 0.0140
vn -0.0303 -0.9990 0.0331
vn -0.7151 -0.3944 0.5772
vn -0.7723 -0.0082 0.6352
vn -0.7151 -0.3943 0.5771
vn -0.8634 -0.3860 0.3250
vn -0.0517 -0.9986 0.0140
vn -0.0663 -0.9977 -0.0107
vn -0.9263 -0.3747 0.0397
vn -0.9264 -0.3745 0.0396
vn -0.0662 -0.9977 -0.0107
vn -0.9263 -0.3746 0.0396
vn -0.0664 -0.9977 -0.0108
vn 0.0191 -0.9988 -0.0443
vn 0.1104 -0.9926 -0.0496
vn 0.0134 -0.9907 -0.1354
vn -0.0698 -0.9953 -0.0672
vn -0.0725 -0.9966 -0.0386
vn -0.0664 -0.9977 -0.0107
vn 0.0773 -0.9967 0.0266
vn -0.0304 -0.9990 0.0331
vn -0.0191 0.9988 0.0443
vn -0.0517 0.9979 -0.0391
vn 0.0291 0.9991 -0.0311
vn 0.0500 0.9987 -0.0126
vn 0.0703 0.9968 0.0389
vn 0.0565 0.9941 0.0924
vn -0.0759 0.9968 -0.0249
vn -0.1056 0.9942 0.0216
vn -0.1084 0.9929 0.0493
vn -0.0672 0.9906 0.1194
vn -0.0672 0.9905 0.1196
vt 0.884893 0.614852
vt 0.885815 0.621865
vt 0.850394 0.623697
vt 0.851223 0.617720
vt 0.886163 0.635799
vt 0.850260 0.636506
vt 0.814760 0.624988
vt 0.849685 0.617223
vt 0.815938 0.618922
vt 0.814167 0.637798
vt 0.779421 0.624303
vt 0.814208 0.619009
vt 0.780916 0.617384
vt 0.778388 0.638235
vt 0.744594 0.620338
vt 0.779117 0.617786
vt 0.746360 0.612160
vt 0.742681 0.636516
vt 0.778468 0.644573
vt 0.742893 0.644067
vt 0.744010 0.648653
vt 0.777698 0.648751
vt 0.814090 0.643640
vt 0.779316 0.648574
vt 0.813219 0.647370
vt 0.850016 0.642214
vt 0.815073 0.647013
vt 0.848908 0.646122
vt 0.885670 0.642045
vt 0.850583 0.645990
vt 0.884467 0.646246
vt 0.920825 0.644798
vt 0.886141 0.646114
vt 0.919430 0.649582
vt 0.921730 0.637406
vt 0.920976 0.620931
vt 0.919837 0.612637
vt 0.886488 0.615393
vt 0.885861 0.621665
vt 0.886411 0.614542
vt 0.919990 0.612708
vt 0.921146 0.620463
vt 0.921839 0.637071
vt 0.886063 0.635666
vt 0.850350 0.623609
vt 0.884838 0.615124
vt 0.851169 0.617071
vt 0.850330 0.636509
vt 0.814885 0.625036
vt 0.849595 0.617652
vt 0.816018 0.618566
vt 0.814235 0.637801
vt 0.779422 0.624621
vt 0.814220 0.618967
vt 0.780804 0.617611
vt 0.778389 0.638553
vt 0.744483 0.620565
vt 0.779208 0.617991
vt 0.746270 0.612590
vt 0.742794 0.636923
vt 0.778447 0.644688
vt 0.743097 0.644362
vt 0.744033 0.649173
vt 0.777676 0.648867
vt 0.814361 0.643621
vt 0.779385 0.648577
vt 0.813232 0.647327
vt 0.850141 0.642262
vt 0.815164 0.647218
vt 0.848921 0.646080
vt 0.885515 0.641868
vt 0.850629 0.645791
vt 0.884429 0.645979
vt 0.920884 0.644239
vt 0.886272 0.645982
vt 0.919573 0.649091
vt 0.885731 0.621924
vt 0.886394 0.614891
vt 0.919881 0.613168
vt 0.921038 0.620924
vt 0.921618 0.637442
vt 0.885933 0.635925
vt 0.850254 0.623711
vt 0.884763 0.615428
vt 0.851185 0.617262
vt 0.850121 0.636520
vt 0.814710 0.624890
vt 0.849555 0.617799
vt 0.815900 0.618465
vt 0.814117 0.637699
vt 0.779310 0.624340
vt 0.814214 0.618957
vt 0.780748 0.617376
vt 0.778193 0.638204
vt 0.744488 0.620195
vt 0.779096 0.617710
vt 0.746220 0.612174
vt 0.742569 0.636552
vt 0.778272 0.644542
vt 0.742844 0.643969
vt 0.743898 0.648690
vt 0.777501 0.648721
vt 0.814040 0.643542
vt 0.779266 0.648477
vt 0.813079 0.647384
vt 0.849842 0.642386
vt 0.814865 0.647342
vt 0.848802 0.645979
vt 0.885496 0.642217
vt 0.850522 0.646252
vt 0.884388 0.646126
vt 0.920798 0.644902
vt 0.885962 0.646465
vt 0.919442 0.649350
vt 0.885718 0.621829
vt 0.886583 0.614774
vt 0.919757 0.612983
vt 0.920823 0.620850
vt 0.921605 0.637347
vt 0.886010 0.635718
vt 0.850296 0.623660
vt 0.884785 0.615175
vt 0.851206 0.617010
vt 0.850052 0.636380
vt 0.814607 0.624907
vt 0.849632 0.617592
vt 0.815741 0.618437
vt 0.813957 0.637671
vt 0.779325 0.624267
vt 0.814167 0.619018
vt 0.780707 0.617258
vt 0.778179 0.638109
vt 0.744565 0.619987
vt 0.779020 0.617749
vt 0.746151 0.612034
vt 0.742584 0.636480
vt 0.778259 0.644447
vt 0.742977 0.643807
vt 0.743913 0.648617
vt 0.777488 0.648625
vt 0.814173 0.643380
vt 0.779107 0.648448
vt 0.813178 0.647379
vt 0.849863 0.642133
vt 0.814977 0.646977
vt 0.848868 0.646132
vt 0.885461 0.641919
vt 0.850486 0.645954
vt 0.884286 0.646142
vt 0.920785 0.644807
vt 0.885904 0.645965
vt 0.919249 0.649479
vt 0.819144 0.797375
vt 0.774562 0.906264
vt 0.810227 0.914958
vt 0.742910 0.887094
vt 0.718836 0.859231
vt 0.704570 0.825126
vt 0.701895 0.788458
vt 0.710365 0.752570
vt 0.729535 0.721141
vt 0.757621 0.697122
vt 0.791503 0.682954
vt 0.828060 0.679986
vt 0.864171 0.688513
vt 0.846784 0.911837
vt 0.881112 0.897794
vt 0.908752 0.873720
vt 0.927922 0.842290
vt 0.936838 0.806402
vt 0.933717 0.769678
vt 0.919451 0.735685
vt 0.895378 0.707710
vt 0.711257 0.752905
vt 0.730427 0.721698
vt 0.702787 0.788458
vt 0.705907 0.824792
vt 0.719727 0.858562
vt 0.743801 0.886203
vt 0.775008 0.905373
vt 0.810227 0.913620
vt 0.846784 0.910722
vt 0.880666 0.896679
vt 0.908306 0.872940
vt 0.927030 0.841733
vt 0.758067 0.697930
vt 0.791949 0.683901
vt 0.828060 0.680962
vt 0.863725 0.689404
vt 0.894932 0.708435
vt 0.918560 0.736131
vt 0.932826 0.769846
vt 0.935501 0.806291
s 0
f 242/239/239 241/240/240 240/241/241
f 243/242/242 242/239/239 240/241/243
f 240/241/244 241/240/245 244/243/246
f 245/244/247 240/241/241 244/243/246
f 246/245/248 240/241/249 245/244/247
f 240/241/250 246/245/251 247/246/252
f 246/245/248 248/247/253 247/246/242
f 249/248/254 246/245/248 245/244/255
f 250/249/256 246/245/248 249/248/254
f 246/245/248 250/249/256 251/250/253
f 250/249/256 252/251/257 251/250/258
f 253/252/259 250/249/256 249/248/254
f 254/253/260 250/249/256 253/252/261
f 250/249/256 254/253/262 255/254/263
f 254/253/262 256/255/264 255/254/265
f 257/256/266 254/253/267 253/252/259
f 257/256/268 253/252/259 258/257/269
f 259/258/270 257/256/266 258/257/271
f 259/258/272 258/257/271 260/259/273
f 258/257/271 261/260/274 260/259/273
f 253/252/259 249/248/254 262/261/275
f 258/257/271 253/252/259 262/261/276
f 258/257/271 262/261/277 263/262/274
f 262/261/278 264/263/279 263/262/280
f 262/261/277 249/248/254 265/264/281
f 262/261/277 265/264/281 266/265/282
f 265/264/283 267/266/284 266/265/285
f 249/248/254 245/244/255 265/264/281
f 265/264/283 245/244/255 268/267/286
f 265/264/281 268/267/287 269/268/284
f 268/267/286 270/269/288 269/268/289
f 245/244/247 244/243/246 268/267/290
f 268/267/290 244/243/246 271/270/291
f 268/267/286 271/270/292 272/271/293
f 271/270/291 273/272/294 272/271/295
f 244/243/246 274/273/296 271/270/291
f 244/243/246 241/240/240 274/273/296
f 241/240/245 275/274/297 274/273/298
f 276/275/299 275/274/300 241/240/301
f 277/276/302 276/275/303 241/240/245
f 280/277/304 279/278/305 278/279/264
f 281/280/267 280/277/304 278/279/264
f 280/277/306 281/280/262 282/281/268
f 283/282/307 280/277/304 282/281/266
f 284/283/308 280/277/304 283/282/309
f 280/277/306 284/283/308 285/284/310
f 284/283/308 286/285/311 285/284/312
f 287/286/313 284/283/308 283/282/307
f 288/287/314 284/283/308 287/286/315
f 284/283/308 288/287/316 289/288/311
f 288/287/317 290/289/318 289/288/319
f 291/290/320 288/287/321 287/286/322
f 292/291/323 288/287/314 291/290/320
f 288/287/314 292/291/323 293/292/324
f 292/291/323 294/293/325 293/292/324
f 295/294/326 292/291/323 291/290/320
f 296/295/327 292/291/323 295/294/326
f 292/291/323 296/295/327 297/296/328
f 296/295/329 298/297/330 297/296/328
f 299/298/331 296/295/327 295/294/326
f 299/298/331 295/294/326 300/299/332
f 301/300/333 299/298/331 300/299/332
f 301/300/334 300/299/332 302/301/335
f 300/299/336 303/302/337 302/301/335
f 295/294/326 291/290/320 304/303/338
f 300/299/332 295/294/339 304/303/338
f 300/299/332 304/303/340 305/304/337
f 304/303/338 306/305/341 305/304/337
f 304/303/338 291/290/320 307/306/342
f 304/303/338 307/306/343 308/307/344
f 307/306/345 309/308/346 308/307/341
f 291/290/320 287/286/347 307/306/345
f 307/306/342 287/286/347 310/309/348
f 307/306/345 310/309/348 311/310/349
f 310/309/348 312/311/350 311/310/349
f 287/286/313 283/282/307 310/309/351
f 310/309/351 283/282/307 313/312/352
f 310/309/353 313/312/270 314/313/354
f 313/312/355 315/314/356 314/313/350
f 283/282/357 282/281/266 313/312/270
f 318/315/358 317/316/359 316/317/360
f 319/318/327 318/315/358 316/317/330
f 318/315/358 319/318/329 320/319/331
f 321/320/361 318/315/358 320/319/331
f 322/321/362 318/315/358 321/320/363
f 318/315/358 322/321/364 323/322/359
f 322/321/362 324/323/365 323/322/359
f 325/324/366 322/321/362 321/320/363
f 326/325/367 322/321/362 325/324/366
f 322/321/362 326/325/368 327/326/365
f 326/325/368 328/327/369 327/326/365
f 329/328/370 326/325/368 325/324/366
f 330/329/371 326/325/367 329/328/370
f 326/325/367 330/329/371 331/330/372
f 330/329/371 332/331/373 331/330/372
f 333/332/374 330/329/371 329/328/375
f 334/333/376 330/329/371 333/332/374
f 330/329/371 334/333/377 335/334/373
f 334/333/376 336/335/378 335/334/373
f 337/336/379 334/333/376 333/332/374
f 337/336/380 333/332/374 338/337/381
f 339/338/382 337/336/383 338/337/384
f 339/338/385 338/337/384 340/339/386
f 338/337/387 341/340/388 340/339/386
f 333/332/374 329/328/370 342/341/389
f 338/337/381 333/332/374 342/341/389
f 338/337/390 342/341/391 343/342/392
f 342/341/391 344/343/393 343/342/392
f 342/341/391 329/328/370 345/344/394
f 342/341/391 345/344/395 346/345/393
f 345/344/396 347/346/397 346/345/398
f 329/328/399 325/324/400 345/344/395
f 345/344/395 325/324/366 348/347/401
f 345/344/395 348/347/402 349/348/403
f 348/347/402 350/349/404 349/348/405
f 325/324/366 321/320/406 348/347/401
f 348/347/401 321/320/407 351/350/333
f 348/347/401 351/350/408 352/351/404
f 351/350/334 353/352/409 352/351/404
f 321/320/363 320/319/331 351/350/333
f 356/353/410 355/354/411 354/355/378
f 357/356/412 356/353/413 354/355/378
f 356/353/410 357/356/376 358/357/380
f 359/358/414 356/353/415 358/357/379
f 360/359/416 356/353/410 359/358/417
f 356/353/410 360/359/416 361/360/418
f 360/359/416 362/361/419 361/360/420
f 363/362/421 360/359/416 359/358/422
f 364/363/423 360/359/416 363/362/421
f 360/359/416 364/363/424 365/364/419
f 364/363/425 366/365/426 365/364/427
f 367/366/428 364/363/423 363/362/421
f 368/367/429 364/363/424 367/366/428
f 364/363/430 368/367/429 369/368/431
f 368/367/429 370/369/432 369/368/426
f 371/370/433 368/367/429 367/366/428
f 372/371/297 368/367/429 371/370/433
f 368/367/429 372/371/434 373/372/435
f 372/371/434 374/373/303 373/372/436
f 375/374/296 372/371/300 371/370/433
f 375/374/296 371/370/433 376/375/437
f 377/376/291 375/374/298 376/375/438
f 377/376/291 376/375/437 378/377/439
f 376/375/438 379/378/440 378/377/294
f 371/370/433 367/366/428 380/379/441
f 376/375/438 371/370/442 380/379/441
f 376/375/437 380/379/443 381/380/440
f 380/379/441 382/381/444 381/380/440
f 380/379/441 367/366/428 383/382/445
f 384/383/446 380/379/441 383/382/447
f 385/384/448 384/383/449 383/382/450
f 367/366/428 363/362/451 383/382/445
f 383/382/452 363/362/421 386/385/453
f 383/382/452 386/385/453 387/386/454
f 386/385/453 388/387/455 387/386/454
f 363/362/421 359/358/414 386/385/453
f 386/385/453 359/358/417 389/388/456
f 386/385/453 389/388/457 390/389/458
f 389/388/459 391/390/386 390/389/460
f 359/358/414 358/357/383 389/388/382
f 394/391/461 393/392/350 392/393/462
f 395/394/346 393/392/350 394/391/461
f 396/395/341 395/394/349 394/391/461
f 397/396/337 396/395/341 394/391/461
f 398/397/463 397/396/337 394/391/461
f 399/398/404 398/397/335 394/391/461
f 400/399/403 399/398/404 394/391/461
f 401/400/393 400/399/403 394/391/461
f 402/401/464 401/400/398 394/391/461
f 403/402/386 402/401/464 394/391/461
f 403/402/465 394/391/461 404/403/466
f 394/391/461 392/393/462 405/404/274
f 394/391/461 405/404/274 406/405/282
f 394/391/461 406/405/282 407/406/284
f 394/391/461 407/406/467 408/407/293
f 394/391/461 408/407/293 409/408/294
f 394/391/461 409/408/294 410/409/440
f 394/391/461 410/409/440 411/410/449
f 394/391/461 411/410/468 412/411/448
f 394/391/461 412/411/448 404/403/466
f 415/391/469 414/412/470 413/413/365
f 416/414/330 414/412/470 415/391/469
f 417/415/328 416/414/330 415/391/469
f 418/416/471 417/415/325 415/391/469
f 419/417/319 418/416/471 415/391/469
f 420/418/305 419/417/472 415/391/469
f 421/419/473 420/418/305 415/391/469
f 422/420/263 421/419/264 415/391/469
f 423/421/474 422/420/263 415/391/469
f 424/422/242 423/421/258 415/391/469
f 424/422/242 415/391/469 425/423/239
f 415/391/469 413/413/475 426/424/372
f 415/391/469 426/424/369 427/425/476
f 415/391/469 427/425/476 428/426/477
f 415/391/469 428/426/378 429/427/411
f 415/391/469 429/427/418 430/428/419
f 415/391/469 430/428/419 431/429/478
f 415/391/469 431/429/479 432/430/436
f 415/391/469 432/430/436 433/431/303
f 415/391/469 433/431/303 425/423/239
o m_ingredients_tomato_salad_01.002
v -0.112393 0.119732 0.059928
v -0.111788 0.120224 0.033062
v -0.107304 0.123967 0.033983
v -0.107874 0.123502 0.059332
v -0.112232 0.112206 0.032743
v -0.112843 0.111706 0.059957
v -0.104690 0.119937 0.085678
v -0.107874 0.123502 0.059332
v -0.100608 0.123695 0.083627
v -0.105043 0.111914 0.086042
v -0.089437 0.120820 0.107791
v -0.100608 0.123695 0.083627
v -0.086218 0.124528 0.104490
v -0.089592 0.112808 0.108441
v -0.068126 0.122295 0.124101
v -0.086218 0.124528 0.104490
v -0.066109 0.125919 0.119881
v -0.068002 0.114301 0.124964
v -0.088473 0.103584 0.107935
v -0.067009 0.105069 0.124363
v -0.064489 0.101852 0.120142
v -0.084779 0.100449 0.104612
v -0.103836 0.102696 0.085664
v -0.084779 0.100449 0.104612
v -0.099300 0.099608 0.083560
v -0.111593 0.102490 0.059729
v -0.099300 0.099608 0.083560
v -0.106632 0.099413 0.059045
v -0.110984 0.102987 0.032671
v -0.106632 0.099413 0.059045
v -0.106057 0.099883 0.033466
v -0.102072 0.104138 0.007135
v -0.106057 0.099883 0.033466
v -0.097630 0.100970 0.009329
v -0.103267 0.113363 0.007059
v -0.102937 0.121366 0.007708
v -0.098952 0.125045 0.010062
v -0.107304 0.123967 0.033983
v -0.066109 0.125919 0.119881
v -0.042253 0.127732 0.128290
v -0.042842 0.124216 0.133014
v -0.068126 0.122295 0.124101
v -0.068002 0.114301 0.124964
v -0.042390 0.116248 0.133994
v -0.016058 0.126397 0.133658
v -0.042253 0.127732 0.128290
v -0.016983 0.129789 0.128897
v -0.015261 0.118456 0.134644
v 0.009599 0.128622 0.125966
v -0.016983 0.129789 0.128897
v 0.007225 0.131889 0.121640
v 0.010729 0.120711 0.126852
v 0.031621 0.130676 0.110693
v 0.007225 0.131889 0.121640
v 0.028003 0.133826 0.107230
v 0.033036 0.122791 0.111381
v 0.047851 0.132356 0.089336
v 0.028003 0.133826 0.107230
v 0.043317 0.135412 0.087078
v 0.049478 0.124493 0.089746
v 0.033450 0.113511 0.110858
v 0.049795 0.115203 0.089347
v 0.045924 0.111431 0.087041
v 0.030473 0.109831 0.107376
v 0.011269 0.111442 0.126239
v 0.030473 0.109831 0.107376
v 0.009507 0.107876 0.121916
v -0.014572 0.109200 0.133986
v 0.009507 0.107876 0.121916
v -0.014920 0.105757 0.129239
v -0.041545 0.107004 0.133339
v -0.014920 0.105757 0.129239
v -0.040417 0.103681 0.128627
v -0.067009 0.105069 0.124363
v -0.040417 0.103681 0.128627
v -0.064489 0.101852 0.120142
v 0.043317 0.135412 0.087078
v 0.051668 0.136490 0.063157
v 0.056701 0.133498 0.063982
v 0.047851 0.132356 0.089336
v 0.049478 0.124493 0.089746
v 0.058444 0.125651 0.064064
v 0.057305 0.133990 0.037116
v 0.051668 0.136490 0.063157
v 0.052236 0.136955 0.037807
v 0.059055 0.126150 0.036848
v 0.049603 0.133785 0.011365
v 0.052236 0.136955 0.037807
v 0.044970 0.136762 0.013512
v 0.051254 0.125942 0.010765
v 0.034350 0.132902 -0.010748
v 0.044970 0.136762 0.013512
v 0.030579 0.135928 -0.007351
v 0.035802 0.125049 -0.011636
v 0.013039 0.131428 -0.027059
v 0.030579 0.135928 -0.007351
v 0.010471 0.134537 -0.022740
v 0.014216 0.123554 -0.028158
v 0.036201 0.115756 -0.011451
v 0.014735 0.114272 -0.027880
v 0.012782 0.110549 -0.023768
v 0.033071 0.111953 -0.008240
v 0.051563 0.116645 0.010820
v 0.033071 0.111953 -0.008240
v 0.047592 0.112793 0.012812
v 0.059318 0.116852 0.036753
v 0.047592 0.112793 0.012812
v 0.054924 0.112988 0.037326
v 0.058711 0.116355 0.063813
v 0.054924 0.112988 0.037326
v 0.054350 0.112519 0.062904
v 0.049795 0.115203 0.089347
v 0.054350 0.112519 0.062904
v 0.045924 0.111431 0.087041
v 0.010471 0.134537 -0.022740
v -0.013385 0.132725 -0.031149
v -0.012246 0.129506 -0.035972
v 0.013039 0.131428 -0.027059
v 0.014216 0.123554 -0.028158
v -0.011399 0.121609 -0.037188
v -0.039028 0.127326 -0.036615
v -0.013385 0.132725 -0.031149
v -0.038654 0.130668 -0.031756
v -0.038527 0.119400 -0.037838
v -0.064687 0.125100 -0.028924
v -0.038654 0.130668 -0.031756
v -0.062861 0.128567 -0.024498
v -0.064519 0.117145 -0.030046
v -0.086707 0.123047 -0.013651
v -0.062861 0.128567 -0.024498
v -0.083640 0.126630 -0.010090
v -0.086825 0.115065 -0.014575
v -0.102937 0.121366 0.007708
v -0.083640 0.126630 -0.010090
v -0.098952 0.125045 0.010062
v -0.103267 0.113363 0.007059
v -0.085724 0.105831 -0.014376
v -0.102072 0.104138 0.007135
v -0.097630 0.100970 0.009329
v -0.082178 0.102570 -0.011003
v -0.063544 0.107899 -0.029757
v -0.082178 0.102570 -0.011003
v -0.061212 0.104525 -0.025543
v -0.037704 0.110142 -0.037504
v -0.061212 0.104525 -0.025543
v -0.036786 0.106644 -0.032865
v -0.010729 0.112337 -0.036856
v -0.036786 0.106644 -0.032865
v -0.011290 0.108720 -0.032253
v 0.014735 0.114272 -0.027880
v -0.011290 0.108720 -0.032253
v 0.012782 0.110549 -0.023768
v -0.064489 0.101852 0.120142
v -0.040417 0.103681 0.128627
v -0.025853 0.106201 0.048186
v -0.014920 0.105757 0.129239
v 0.009507 0.107876 0.121916
v 0.030473 0.109831 0.107376
v 0.045924 0.111431 0.087041
v 0.054350 0.112519 0.062904
v 0.054924 0.112988 0.037326
v 0.047592 0.112793 0.012812
v 0.033071 0.111953 -0.008240
v 0.012782 0.110549 -0.023768
v -0.011290 0.108720 -0.032253
v -0.084779 0.100449 0.104612
v -0.099300 0.099608 0.083560
v -0.106632 0.099413 0.059045
v -0.106057 0.099883 0.033466
v -0.097630 0.100970 0.009329
v -0.082178 0.102570 -0.011003
v -0.061212 0.104525 -0.025543
v -0.036786 0.106644 -0.032865
v 0.052236 0.136955 0.037807
v 0.051668 0.136490 0.063157
v -0.027819 0.130228 0.048570
v 0.043317 0.135412 0.087078
v 0.028003 0.133826 0.107230
v 0.007225 0.131889 0.121640
v -0.016983 0.129789 0.128897
v -0.042253 0.127732 0.128290
v -0.066109 0.125919 0.119881
v -0.086218 0.124528 0.104490
v -0.100608 0.123695 0.083627
v -0.107874 0.123502 0.059332
v -0.107304 0.123967 0.033983
v 0.044970 0.136762 0.013512
v 0.030579 0.135928 -0.007351
v 0.010471 0.134537 -0.022740
v -0.013385 0.132725 -0.031149
v -0.038654 0.130668 -0.031756
v -0.062861 0.128567 -0.024498
v -0.083640 0.126630 -0.010090
v -0.098952 0.125045 0.010062
vn -0.1690 0.9856 0.0003
vn -0.9163 0.3695 -0.1544
vn -0.9225 0.3647 0.1263
vn -0.1696 0.9851 0.0283
vn -0.9225 0.3648 0.1263
vn -0.9225 0.3648 0.1264
vn -0.9829 -0.0423 -0.1792
vn -0.9899 -0.0480 0.1334
vn -0.9225 0.3647 0.1264
vn -0.8419 0.3673 0.3954
vn -0.8419 0.3672 0.3954
vn -0.8419 0.3673 0.3953
vn -0.1616 0.9853 0.0551
vn -0.9003 -0.0456 0.4330
vn -0.6824 0.3768 0.6263
vn -0.6824 0.3769 0.6263
vn -0.6825 0.3768 0.6263
vn -0.1457 0.9862 0.0781
vn -0.7228 -0.0353 0.6901
vn -0.9003 -0.0456 0.4329
vn -0.4598 0.3925 0.7966
vn -0.7229 -0.0353 0.6901
vn -0.1457 0.9862 0.0782
vn -0.4598 0.3925 0.7965
vn -0.1235 0.9878 0.0951
vn -0.4749 -0.0180 0.8799
vn -0.4599 0.3925 0.7965
vn -0.4749 -0.0181 0.8799
vn -0.7228 -0.0353 0.6902
vn -0.6445 -0.4198 0.6390
vn -0.4126 -0.4039 0.8165
vn -0.6446 -0.4198 0.6390
vn -0.4127 -0.4039 0.8165
vn 0.0378 -0.9972 0.0641
vn 0.0151 -0.9988 0.0468
vn -0.8105 -0.4293 0.3985
vn -0.8106 -0.4293 0.3984
vn -0.8105 -0.4293 0.3984
vn 0.0152 -0.9988 0.0468
vn -0.0011 -0.9997 0.0233
vn -0.8944 -0.4314 0.1182
vn -0.0093 -0.9999 -0.0042
vn -0.0010 -0.9997 0.0232
vn -0.8879 -0.4259 -0.1742
vn -0.8879 -0.4259 -0.1741
vn -0.8878 -0.4259 -0.1742
vn -0.0087 -0.9994 -0.0329
vn -0.0092 -0.9999 -0.0043
vn -0.8878 -0.4259 -0.1741
vn -0.7916 -0.4133 -0.4500
vn -0.7916 -0.4134 -0.4501
vn -0.7916 -0.4134 -0.4500
vn 0.0007 -0.9982 -0.0599
vn -0.0087 -0.9994 -0.0328
vn -0.8800 -0.0291 -0.4741
vn -0.8239 0.3812 -0.4194
vn -0.1598 0.9868 -0.0262
vn -0.9163 0.3696 -0.1543
vn -0.1958 0.4127 0.8896
vn -0.0971 0.9898 0.1044
vn -0.1234 0.9878 0.0951
vn -0.1958 0.4126 0.8896
vn -0.1808 0.0043 0.9835
vn 0.0839 0.4354 0.8963
vn -0.1808 0.0044 0.9835
vn -0.0692 0.9921 0.1051
vn -0.0972 0.9898 0.1045
vn 0.1308 0.0296 0.9910
vn 0.3519 0.4585 0.8161
vn 0.3520 0.4586 0.8160
vn 0.3520 0.4585 0.8160
vn -0.0425 0.9944 0.0971
vn 0.4292 0.0555 0.9015
vn 0.1307 0.0296 0.9910
vn 0.5820 0.4797 0.6566
vn 0.5820 0.4798 0.6566
vn -0.0425 0.9944 0.0970
vn -0.0196 0.9965 0.0811
vn 0.6853 0.0793 0.7239
vn 0.7516 0.4970 0.4336
vn -0.0195 0.9965 0.0811
vn 0.7516 0.4971 0.4336
vn -0.0026 0.9983 0.0589
vn 0.8742 0.0989 0.4754
vn 0.6853 0.0794 0.7239
vn 0.6728 -0.3126 0.6706
vn 0.8494 -0.2942 0.4382
vn 0.8493 -0.2942 0.4383
vn 0.6728 -0.3125 0.6706
vn 0.1616 -0.9865 0.0271
vn 0.6727 -0.3125 0.6707
vn 0.1443 -0.9883 0.0499
vn 0.1615 -0.9865 0.0271
vn 0.4331 -0.3349 0.8368
vn 0.6727 -0.3125 0.6706
vn 0.6854 0.0793 0.7238
vn 0.4331 -0.3350 0.8368
vn 0.4332 -0.3350 0.8367
vn 0.1208 -0.9905 0.0662
vn 0.1539 -0.3593 0.9204
vn 0.1540 -0.3592 0.9205
vn 0.1540 -0.3593 0.9204
vn 0.0935 -0.9928 0.0744
vn -0.1375 -0.3830 0.9135
vn 0.0934 -0.9928 0.0743
vn 0.0648 -0.9952 0.0737
vn 0.0934 -0.9928 0.0744
vn -0.1375 -0.3829 0.9135
vn -0.4126 -0.4038 0.8165
vn -0.1375 -0.3831 0.9134
vn 0.0379 -0.9972 0.0641
vn 0.0649 -0.9952 0.0737
vn 0.8443 0.5087 0.1687
vn 0.0066 0.9995 0.0325
vn 0.8742 0.0989 0.4755
vn 0.9772 0.1121 0.1805
vn 0.8508 0.5135 -0.1120
vn 0.8507 0.5135 -0.1121
vn 0.0073 1.0000 0.0045
vn 0.9842 0.1179 -0.1320
vn 0.7705 0.5110 -0.3811
vn 0.7704 0.5110 -0.3811
vn 0.0072 1.0000 0.0045
vn -0.0008 0.9997 -0.0224
vn 0.8947 0.1155 -0.4316
vn 0.7704 0.5111 -0.3812
vn 0.9842 0.1179 -0.1319
vn 0.6111 0.5016 -0.6124
vn 0.7704 0.5110 -0.3812
vn -0.0008 0.9998 -0.0223
vn 0.6111 0.5016 -0.6123
vn -0.0167 0.9988 -0.0454
vn 0.7173 0.1050 -0.6888
vn 0.8947 0.1153 -0.4316
vn 0.3883 0.4859 -0.7830
vn 0.6111 0.5015 -0.6124
vn 0.3884 0.4859 -0.7830
vn -0.0389 0.9973 -0.0624
vn 0.4693 0.0879 -0.8787
vn 0.7173 0.1051 -0.6888
vn 0.7025 -0.2878 -0.6508
vn 0.4706 -0.3037 -0.8284
vn 0.4694 0.0879 -0.8786
vn 0.7025 -0.2879 -0.6509
vn 0.4705 -0.3038 -0.8285
vn 0.1245 -0.9875 -0.0971
vn 0.7025 -0.2878 -0.6509
vn 0.1472 -0.9859 -0.0796
vn 0.1245 -0.9875 -0.0970
vn 0.8685 -0.2783 -0.4102
vn 0.8685 -0.2783 -0.4103
vn 0.8684 -0.2783 -0.4103
vn 0.1635 -0.9850 -0.0560
vn 0.9523 -0.2761 -0.1300
vn 0.9523 -0.2762 -0.1300
vn 0.1717 -0.9847 -0.0286
vn 0.8947 0.1154 -0.4316
vn 0.9842 0.1178 -0.1320
vn 0.9457 -0.2817 0.1624
vn 0.9457 -0.2817 0.1623
vn 0.1711 -0.9853 0.0001
vn 0.1716 -0.9848 -0.0285
vn 0.9771 0.1121 0.1806
vn 0.9772 0.1121 0.1806
vn 0.1710 -0.9853 0.0001
vn 0.1242 0.4657 -0.8762
vn -0.0653 0.9953 -0.0717
vn -0.0388 0.9973 -0.0624
vn 0.1751 0.0655 -0.9824
vn 0.1241 0.4658 -0.8762
vn -0.1559 0.4429 -0.8829
vn -0.0652 0.9953 -0.0717
vn -0.0931 0.9930 -0.0724
vn -0.0652 0.9953 -0.0718
vn -0.1365 0.0401 -0.9898
vn -0.4241 0.4198 -0.8025
vn -0.4241 0.4197 -0.8025
vn -0.4242 0.4197 -0.8024
vn -0.1199 0.9907 -0.0644
vn -0.0932 0.9930 -0.0724
vn -0.4350 0.0141 -0.9003
vn -0.1364 0.0401 -0.9898
vn -0.6543 0.3985 -0.6427
vn -0.6543 0.3984 -0.6427
vn -0.1200 0.9907 -0.0644
vn -0.1428 0.9886 -0.0484
vn -0.6912 -0.0096 -0.7226
vn -0.8239 0.3812 -0.4193
vn -0.1428 0.9886 -0.0485
vn -0.1598 0.9868 -0.0261
vn -0.6149 -0.3950 -0.6825
vn -0.6149 -0.3951 -0.6825
vn 0.0180 -0.9964 -0.0827
vn -0.3753 -0.3726 -0.8487
vn -0.3752 -0.3726 -0.8487
vn 0.0415 -0.9942 -0.0990
vn -0.0961 -0.3484 -0.9324
vn 0.0416 -0.9942 -0.0991
vn 0.0690 -0.9918 -0.1073
vn -0.0962 -0.3484 -0.9324
vn -0.4349 0.0141 -0.9003
vn -0.1365 0.0400 -0.9898
vn 0.1955 -0.3246 -0.9254
vn 0.1954 -0.3246 -0.9254
vn 0.0689 -0.9919 -0.1072
vn 0.0975 -0.9895 -0.1066
vn 0.1955 -0.3247 -0.9254
vn 0.1752 0.0655 -0.9824
vn 0.4705 -0.3039 -0.8284
vn 0.0974 -0.9895 -0.1065
vn 0.4706 -0.3038 -0.8284
vn 0.0976 -0.9895 -0.1066
vn 0.0815 -0.9965 -0.0164
vn 0.0379 -0.9972 0.0642
vn 0.1207 -0.9905 0.0662
vn 0.0815 -0.9965 -0.0165
vn 0.1473 -0.9859 -0.0797
vn 0.1244 -0.9875 -0.0971
vn 0.0380 -0.9972 0.0642
vn 0.0181 -0.9964 -0.0827
vn 0.0415 -0.9942 -0.0991
vn 0.0689 -0.9918 -0.1073
vn -0.0815 0.9965 0.0165
vn -0.0815 0.9965 0.0164
vn -0.0195 0.9965 0.0812
vn -0.0971 0.9898 0.1043
vn -0.0693 0.9921 0.1050
vn -0.1458 0.9862 0.0781
vn -0.1615 0.9853 0.0552
vn -0.1696 0.9851 0.0282
vn -0.1199 0.9907 -0.0643
vt 0.884893 0.614852
vt 0.885815 0.621865
vt 0.850394 0.623697
vt 0.851223 0.617720
vt 0.886163 0.635799
vt 0.850260 0.636506
vt 0.814760 0.624988
vt 0.849685 0.617223
vt 0.815938 0.618922
vt 0.814167 0.637798
vt 0.779421 0.624303
vt 0.814208 0.619009
vt 0.780916 0.617384
vt 0.778388 0.638235
vt 0.744594 0.620338
vt 0.779117 0.617786
vt 0.746360 0.612160
vt 0.742681 0.636516
vt 0.778468 0.644573
vt 0.742893 0.644067
vt 0.744010 0.648653
vt 0.777698 0.648751
vt 0.814090 0.643640
vt 0.779316 0.648574
vt 0.813219 0.647370
vt 0.850016 0.642214
vt 0.815073 0.647013
vt 0.848908 0.646122
vt 0.885670 0.642045
vt 0.850583 0.645990
vt 0.884467 0.646246
vt 0.920825 0.644798
vt 0.886141 0.646114
vt 0.919430 0.649582
vt 0.921730 0.637406
vt 0.920976 0.620931
vt 0.919837 0.612637
vt 0.886488 0.615393
vt 0.885861 0.621665
vt 0.886411 0.614542
vt 0.919990 0.612708
vt 0.921146 0.620463
vt 0.921839 0.637071
vt 0.886063 0.635666
vt 0.850350 0.623609
vt 0.884838 0.615124
vt 0.851169 0.617071
vt 0.850330 0.636509
vt 0.814885 0.625036
vt 0.849595 0.617652
vt 0.816018 0.618566
vt 0.814235 0.637801
vt 0.779422 0.624621
vt 0.814220 0.618967
vt 0.780804 0.617611
vt 0.778389 0.638553
vt 0.744483 0.620565
vt 0.779208 0.617991
vt 0.746270 0.612590
vt 0.742794 0.636923
vt 0.778447 0.644688
vt 0.743097 0.644362
vt 0.744033 0.649173
vt 0.777676 0.648867
vt 0.814361 0.643621
vt 0.779385 0.648577
vt 0.813232 0.647327
vt 0.850141 0.642262
vt 0.815164 0.647218
vt 0.848921 0.646080
vt 0.885515 0.641868
vt 0.850629 0.645791
vt 0.884429 0.645979
vt 0.920884 0.644239
vt 0.886272 0.645982
vt 0.919573 0.649091
vt 0.885731 0.621924
vt 0.886394 0.614891
vt 0.919881 0.613168
vt 0.921038 0.620924
vt 0.921618 0.637442
vt 0.885933 0.635925
vt 0.850254 0.623711
vt 0.884763 0.615428
vt 0.851185 0.617262
vt 0.850121 0.636520
vt 0.814710 0.624890
vt 0.849555 0.617799
vt 0.815900 0.618465
vt 0.814117 0.637699
vt 0.779310 0.624340
vt 0.814214 0.618957
vt 0.780748 0.617376
vt 0.778193 0.638204
vt 0.744488 0.620195
vt 0.779096 0.617710
vt 0.746220 0.612174
vt 0.742569 0.636552
vt 0.778272 0.644542
vt 0.742844 0.643969
vt 0.743898 0.648690
vt 0.777501 0.648721
vt 0.814040 0.643542
vt 0.779266 0.648477
vt 0.813079 0.647384
vt 0.849842 0.642386
vt 0.814865 0.647342
vt 0.848802 0.645979
vt 0.885496 0.642217
vt 0.850522 0.646252
vt 0.884388 0.646126
vt 0.920798 0.644902
vt 0.885962 0.646465
vt 0.919442 0.649350
vt 0.885718 0.621829
vt 0.886583 0.614774
vt 0.919757 0.612983
vt 0.920823 0.620850
vt 0.921605 0.637347
vt 0.886010 0.635718
vt 0.850296 0.623660
vt 0.884785 0.615175
vt 0.851206 0.617010
vt 0.850052 0.636380
vt 0.814607 0.624907
vt 0.849632 0.617592
vt 0.815741 0.618437
vt 0.813957 0.637671
vt 0.779325 0.624267
vt 0.814167 0.619018
vt 0.780707 0.617258
vt 0.778179 0.638109
vt 0.744565 0.619987
vt 0.779020 0.617749
vt 0.746151 0.612034
vt 0.742584 0.636480
vt 0.778259 0.644447
vt 0.742977 0.643807
vt 0.743913 0.648617
vt 0.777488 0.648625
vt 0.814173 0.643380
vt 0.779107 0.648448
vt 0.813178 0.647379
vt 0.849863 0.642133
vt 0.814977 0.646977
vt 0.848868 0.646132
vt 0.885461 0.641919
vt 0.850486 0.645954
vt 0.884286 0.646142
vt 0.920785 0.644807
vt 0.885904 0.645965
vt 0.919249 0.649479
vt 0.819144 0.797375
vt 0.774562 0.906264
vt 0.810227 0.914958
vt 0.742910 0.887094
vt 0.718836 0.859231
vt 0.704570 0.825126
vt 0.701895 0.788458
vt 0.710365 0.752570
vt 0.729535 0.721141
vt 0.757621 0.697122
vt 0.791503 0.682954
vt 0.828060 0.679986
vt 0.864171 0.688513
vt 0.846784 0.911837
vt 0.881112 0.897794
vt 0.908752 0.873720
vt 0.927922 0.842290
vt 0.936838 0.806402
vt 0.933717 0.769678
vt 0.919451 0.735685
vt 0.895378 0.707710
vt 0.711257 0.752905
vt 0.730427 0.721698
vt 0.702787 0.788458
vt 0.705907 0.824792
vt 0.719727 0.858562
vt 0.743801 0.886203
vt 0.775008 0.905373
vt 0.810227 0.913620
vt 0.846784 0.910722
vt 0.880666 0.896679
vt 0.908306 0.872940
vt 0.927030 0.841733
vt 0.758067 0.697930
vt 0.791949 0.683901
vt 0.828060 0.680962
vt 0.863725 0.689404
vt 0.894932 0.708435
vt 0.918560 0.736131
vt 0.932826 0.769846
vt 0.935501 0.806291
s 0
f 436/432/480 435/433/481 434/434/482
f 437/435/483 436/432/480 434/434/484
f 434/434/485 435/433/481 438/436/486
f 439/437/487 434/434/488 438/436/486
f 440/438/489 434/434/484 439/437/487
f 434/434/484 440/438/490 441/439/483
f 440/438/491 442/440/492 441/439/483
f 443/441/493 440/438/491 439/437/487
f 444/442/494 440/438/489 443/441/493
f 440/438/489 444/442/495 445/443/492
f 444/442/496 446/444/497 445/443/492
f 447/445/498 444/442/496 443/441/499
f 448/446/500 444/442/496 447/445/501
f 444/442/496 448/446/500 449/447/502
f 448/446/503 450/448/504 449/447/497
f 451/449/505 448/446/506 447/445/498
f 451/449/507 447/445/508 452/450/509
f 453/451/510 451/449/505 452/450/511
f 453/451/512 452/450/509 454/452/513
f 452/450/509 455/453/514 454/452/513
f 447/445/498 443/441/499 456/454/515
f 452/450/511 447/445/498 456/454/516
f 452/450/509 456/454/517 457/455/518
f 456/454/515 458/456/519 457/455/518
f 456/454/517 443/441/499 459/457/520
f 456/454/517 459/457/520 460/458/519
f 459/457/520 461/459/521 460/458/522
f 443/441/499 439/437/487 459/457/520
f 459/457/520 439/437/487 462/460/523
f 459/457/520 462/460/524 463/461/521
f 462/460/525 464/462/526 463/461/527
f 439/437/487 438/436/486 462/460/525
f 462/460/528 438/436/486 465/463/529
f 462/460/523 465/463/530 466/464/526
f 465/463/531 467/465/532 466/464/533
f 438/436/486 468/466/534 465/463/531
f 438/436/486 435/433/481 468/466/534
f 435/433/481 469/467/535 468/466/534
f 470/468/536 469/467/535 435/433/537
f 471/469/480 470/468/536 435/433/481
f 474/470/538 473/471/539 472/472/504
f 475/473/506 474/470/538 472/472/540
f 474/470/541 475/473/500 476/474/507
f 477/475/542 474/470/538 476/474/505
f 478/476/543 474/470/541 477/475/544
f 474/470/541 478/476/543 479/477/539
f 478/476/543 480/478/545 479/477/546
f 481/479/547 478/476/543 477/475/542
f 482/480/548 478/476/543 481/479/547
f 478/476/543 482/480/549 483/481/545
f 482/480/550 484/482/551 483/481/545
f 485/483/552 482/480/550 481/479/553
f 486/484/554 482/480/548 485/483/552
f 482/480/548 486/484/555 487/485/556
f 486/484/555 488/486/557 487/485/556
f 489/487/558 486/484/554 485/483/552
f 490/488/559 486/484/554 489/487/558
f 486/484/554 490/488/559 491/489/560
f 490/488/561 492/490/562 491/489/557
f 493/491/563 490/488/561 489/487/558
f 493/491/563 489/487/564 494/492/565
f 495/493/566 493/491/563 494/492/565
f 495/493/567 494/492/568 496/494/569
f 494/492/570 497/495/571 496/494/572
f 489/487/558 485/483/552 498/496/573
f 494/492/574 489/487/575 498/496/576
f 494/492/565 498/496/577 499/497/571
f 498/496/576 500/498/578 499/497/571
f 498/496/576 485/483/552 501/499/579
f 498/496/576 501/499/580 502/500/578
f 501/499/581 503/501/582 502/500/578
f 485/483/552 481/479/553 501/499/581
f 501/499/579 481/479/553 504/502/583
f 501/499/581 504/502/583 505/503/584
f 504/502/583 506/504/585 505/503/586
f 481/479/547 477/475/542 504/502/583
f 504/502/587 477/475/542 507/505/588
f 504/502/589 507/505/510 508/506/585
f 507/505/588 509/507/590 508/506/591
f 477/475/542 476/474/505 507/505/510
f 512/508/592 511/509/593 510/510/562
f 513/511/559 512/508/592 510/510/562
f 512/508/592 513/511/561 514/512/594
f 515/513/595 512/508/592 514/512/563
f 516/514/596 512/508/592 515/513/595
f 512/508/592 516/514/597 517/515/593
f 516/514/596 518/516/598 517/515/593
f 519/517/599 516/514/596 515/513/595
f 520/518/600 516/514/596 519/517/599
f 516/514/596 520/518/601 521/519/602
f 520/518/601 522/520/603 521/519/598
f 523/521/604 520/518/605 519/517/606
f 524/522/607 520/518/608 523/521/604
f 520/518/601 524/522/607 525/523/609
f 524/522/610 526/524/611 525/523/609
f 527/525/612 524/522/607 523/521/613
f 528/526/614 524/522/607 527/525/612
f 524/522/615 528/526/616 529/527/611
f 528/526/616 530/528/617 529/527/611
f 531/529/618 528/526/614 527/525/619
f 531/529/618 527/525/612 532/530/620
f 533/531/621 531/529/622 532/530/623
f 533/531/624 532/530/623 534/532/625
f 532/530/626 535/533/627 534/532/628
f 527/525/619 523/521/604 536/534/629
f 532/530/620 527/525/612 536/534/629
f 532/530/626 536/534/630 537/535/627
f 536/534/631 538/536/632 537/535/627
f 536/534/630 523/521/604 539/537/633
f 536/534/630 539/537/634 540/538/632
f 539/537/634 541/539/635 540/538/632
f 523/521/636 519/517/637 539/537/634
f 539/537/634 519/517/599 542/540/638
f 539/537/634 542/540/639 543/541/635
f 542/540/639 544/542/640 543/541/641
f 519/517/599 515/513/642 542/540/638
f 542/540/638 515/513/643 545/543/566
f 542/540/638 545/543/566 546/544/644
f 545/543/567 547/545/569 546/544/644
f 515/513/595 514/512/563 545/543/566
f 550/546/645 549/547/646 548/548/617
f 551/549/616 550/546/645 548/548/647
f 550/546/645 551/549/614 552/550/618
f 553/551/648 550/546/649 552/550/618
f 554/552/650 550/546/645 553/551/648
f 550/546/645 554/552/650 555/553/651
f 554/552/650 556/554/652 555/553/653
f 557/555/654 554/552/650 553/551/648
f 558/556/655 554/552/650 557/555/654
f 554/552/650 558/556/656 559/557/652
f 558/556/657 560/558/658 559/557/659
f 561/559/660 558/556/655 557/555/661
f 562/560/662 558/556/656 561/559/660
f 558/556/656 562/560/663 563/561/664
f 562/560/663 564/562/665 563/561/658
f 565/563/666 562/560/662 561/559/660
f 566/564/535 562/560/663 565/563/666
f 562/560/662 566/564/667 567/565/668
f 566/564/667 568/566/669 567/565/665
f 569/567/534 566/564/535 565/563/666
f 569/567/534 565/563/666 570/568/670
f 571/569/531 569/567/534 570/568/671
f 571/569/530 570/568/670 572/570/532
f 570/568/671 573/571/672 572/570/532
f 565/563/666 561/559/660 574/572/673
f 570/568/671 565/563/666 574/572/673
f 570/568/670 574/572/674 575/573/672
f 574/572/673 576/574/675 575/573/672
f 574/572/673 561/559/660 577/575/676
f 578/576/677 574/572/673 577/575/676
f 579/577/678 578/576/675 577/575/679
f 561/559/680 557/555/681 577/575/676
f 577/575/676 557/555/661 580/578/682
f 577/575/676 580/578/683 581/579/684
f 580/578/682 582/580/685 581/579/684
f 557/555/654 553/551/648 580/578/686
f 580/578/683 553/551/687 583/581/688
f 580/578/682 583/581/621 584/582/689
f 583/581/690 585/583/625 584/582/691
f 553/551/648 552/550/622 583/581/690
f 588/584/692 587/585/585 586/586/693
f 589/587/582 587/585/591 588/584/692
f 590/588/578 589/587/586 588/584/692
f 591/589/571 590/588/694 588/584/695
f 592/590/569 591/589/571 588/584/695
f 593/591/640 592/590/572 588/584/692
f 594/592/635 593/591/640 588/584/695
f 595/593/632 594/592/635 588/584/695
f 596/594/696 595/593/632 588/584/692
f 597/595/625 596/594/696 588/584/692
f 597/595/697 588/584/695 598/596/685
f 588/584/695 586/586/698 599/597/518
f 588/584/692 599/597/518 600/598/519
f 588/584/692 600/598/519 601/599/521
f 588/584/695 601/599/521 602/600/526
f 588/584/692 602/600/526 603/601/532
f 588/584/695 603/601/532 604/602/699
f 588/584/692 604/602/672 605/603/700
f 588/584/695 605/603/700 606/604/701
f 588/584/695 606/604/701 598/596/685
f 609/584/702 608/605/593 607/606/598
f 610/607/562 608/605/593 609/584/703
f 611/608/560 610/607/562 609/584/702
f 612/609/556 611/608/704 609/584/702
f 613/610/545 612/609/556 609/584/703
f 614/611/705 613/610/706 609/584/703
f 615/612/504 614/611/705 609/584/703
f 616/613/502 615/612/540 609/584/702
f 617/614/492 616/613/707 609/584/703
f 618/615/483 617/614/708 609/584/703
f 618/615/709 609/584/702 619/616/480
f 609/584/703 607/606/602 620/617/609
f 609/584/703 620/617/603 621/618/611
f 609/584/703 621/618/611 622/619/617
f 609/584/702 622/619/617 623/620/651
f 609/584/702 623/620/651 624/621/652
f 609/584/702 624/621/659 625/622/710
f 609/584/703 625/622/664 626/623/665
f 609/584/702 626/623/665 627/624/536
f 609/584/702 627/624/536 619/616/480
