v -0.34380126 0.101794824 0.343800873
v -0.350976557 0.112314537 0.350976
v -0.239898682 0.112314537 0.43713516
v -0.234995112 0.101794824 0.428198725
v -0.119949952 0.112314537 0.4835071
v -0.117497556 0.101794824 0.47362268
v 0 0.112314537 0.4989644
v 0 0.101794824 0.488764077
v 0.119949952 0.112314537 0.4835071
v 0.117497556 0.101794824 0.47362268
v 0.239898682 0.112314537 0.43713516
v 0.234995112 0.101794824 0.428198725
v 0.350975335 0.112314537 0.350976
v 0.34380126 0.101794824 0.343800873
v 0.437135 0.112314537 0.239899084
v 0.428198218 0.101794824 0.234994784
v 0.483507067 0.112314537 0.119949542
v 0.473623037 0.101794824 0.117497392
v 0.498964846 0.112314537 1E-08
v 0.488763422 0.101794824 0
v 0.483507067 0.112314537 -0.11994952
v 0.473623037 0.101794824 -0.117497392
v 0.437135 0.112314537 -0.239899039
v 0.428198218 0.101794824 -0.234994784
v 0.350975335 0.112314537 -0.350976
v 0.34380126 0.101794824 -0.343800873
v 0.239898682 0.112314537 -0.43713516
v 0.234995112 0.101794824 -0.428198725
v 0.119949952 0.112314537 -0.4835071
v 0.117497556 0.101794824 -0.47362268
v 0 0.112314537 -0.4989644
v 0 0.101794824 -0.488764077
v -0.119949952 0.112314537 -0.4835071
v -0.117497556 0.101794824 -0.47362268
v -0.239898682 0.112314537 -0.43713516
v -0.234995112 0.101794824 -0.428198725
v -0.350976557 0.112314537 -0.350976
v -0.34380126 0.101794824 -0.343800873
v -0.437135 0.112314537 -0.239899039
v -0.42819944 0.101794824 -0.234994784
v -0.483507067 0.112314537 -0.11994952
v -0.473623037 0.101794824 -0.117497392
v -0.498964846 0.112314537 1E-08
v -0.488764644 0.101794824 0
v -0.483507067 0.112314537 0.119949542
v -0.473623037 0.101794824 0.117497392
v -0.437135 0.112314537 0.239899084
v -0.42819944 0.101794824 0.234994784
v -0.134960935 0.08825079 0.2459204
v -0.197449952 0.08825079 0.197449565
v 0 0.08825077 2.601515E-08
v -0.2459204 0.08825079 0.134960681
v -0.06748047 0.08825079 0.272007883
v 0 0.08825079 0.2807038
v 0.06748047 0.08825079 0.272007883
v 0.134960935 0.08825079 0.2459204
v 0.197449952 0.08825079 0.197449565
v 0.2459204 0.08825079 0.134960681
v -0.272008061 0.08825079 0.0674803555
v 0.272008061 0.08825079 0.0674803555
v -0.280704349 0.08825079 1.21161916E-08
v 0.280703127 0.08825079 1.21161916E-08
v -0.272008061 0.08825079 -0.0674803555
v 0.272008061 0.08825079 -0.0674803555
v -0.2459204 0.08825079 -0.134960681
v 0.2459204 0.08825079 -0.134960681
v -0.197449952 0.08825079 -0.197449565
v -0.134960935 0.08825079 -0.2459204
v -0.06748047 0.08825079 -0.272007883
v 0 0.08825079 -0.2807038
v 0.06748047 0.08825079 -0.272007883
v 0.134960935 0.08825079 -0.2459204
v 0.197449952 0.08825079 -0.197449565
v -0.2934314 0.0928256959 2E-08
v -0.284340829 0.0928256959 0.07054006
v -0.257071525 0.0928256959 0.141080126
v -0.206402585 0.0928256959 0.206402317
v -0.14108032 0.0928256959 0.257070929
v -0.07053955 0.0928256959 0.284341335
v 0 0.0928256959 0.29343155
v 0.07053955 0.0928256959 0.284341335
v 0.14108032 0.0928256959 0.257070929
v 0.206402585 0.0928256959 0.206402317
v 0.2570703 0.0928256959 0.141080126
v 0.284340829 0.0928256959 0.07054006
v 0.2934314 0.0928256959 2E-08
v 0.284340829 0.0928256959 -0.07054006
v 0.2570703 0.0928256959 -0.141080126
v 0.206402585 0.0928256959 -0.206402317
v 0.14108032 0.0928256959 -0.257070929
v 0.07053955 0.0928256959 -0.284341335
v 0 0.0928256959 -0.29343155
v -0.07053955 0.0928256959 -0.284341335
v -0.14108032 0.0928256959 -0.257070929
v -0.206402585 0.0928256959 -0.206402317
v -0.257071525 0.0928256959 -0.141080126
v -0.284340829 0.0928256959 -0.07054006
v 0.0784191862 0.119884469 -0.3161032
v 0.1568347 0.119882569 -0.2857793
v 0 0.119880624 -0.3261919
v -0.0784191862 0.119884469 -0.3161032
v -0.1568347 0.119882569 -0.2857793
v -0.229483634 0.1198929 -0.229484037
v -0.2857788 0.119882569 -0.1568352
v -0.316103518 0.119884469 -0.07841961
v -0.3261914 0.119880624 2E-08
v -0.316103518 0.119884469 0.07841961
v -0.2857788 0.119882569 0.156835228
v -0.229483634 0.1198929 0.229484037
v -0.1568347 0.119882569 0.2857793
v -0.0784191862 0.119884469 0.3161032
v 0 0.119880624 0.3261919
v 0.0784191862 0.119884469 0.3161032
v 0.1568347 0.119882569 0.2857793
v 0.229483634 0.1198929 0.229484037
v 0.2857788 0.119882569 0.156835228
v 0.316103518 0.119884469 0.07841961
v 0.3261914 0.119880624 2E-08
v 0.316103518 0.119884469 -0.07841961
v 0.2857788 0.119882569 -0.156835228
v 0.229483634 0.1198929 -0.229484037
v 0.299169928 0.128557146 0.164184362
v 0.3309155 0.128554747 0.0820943
v 0.2402356 0.12854439 0.240235254
v 0.164183348 0.128557339 0.299170762
v 0.08209472 0.128554478 0.330915153
v 0 0.128559142 0.341478139
v -0.08209351 0.128554434 0.330915064
v -0.164183348 0.128557339 0.299170762
v -0.2402356 0.128544316 0.240235284
v -0.299169928 0.12855728 0.1641843
v -0.3309155 0.128554747 0.0820943
v -0.341477036 0.128559038 2.48774565E-08
v -0.3309155 0.128554747 -0.0820942745
v -0.299169928 0.128557265 -0.164184242
v -0.2402356 0.128544316 -0.240235284
v -0.164183348 0.128557339 -0.299170762
v -0.08209351 0.128554434 -0.330915064
v 0 0.128559142 -0.341478139
v 0.08209472 0.128554478 -0.330915153
v 0.164183348 0.128557339 -0.299170762
v 0.2402356 0.12854439 -0.240235254
v 0.299169928 0.128557131 -0.164184317
v 0.330916733 0.128554955 -0.08209436
v 0.341477036 0.128558964 2.487736E-08
v 0.1125769 0.146142066 -0.453791767
v 0 0.146150038 -0.46829614
v 0.117497556 0.141414344 -0.47362268
v 0 0.141414344 -0.488764077
v -0.112578124 0.1461421 -0.4537918
v -0.117497556 0.141414344 -0.47362268
v -0.2251538 0.146146744 -0.410268456
v -0.234995112 0.141414344 -0.428198725
v -0.329411626 0.14612402 -0.329410732
v -0.34380126 0.141414344 -0.343800873
v -0.410268545 0.146147 -0.22515434
v -0.42819944 0.141414344 -0.234994709
v -0.453792721 0.14614214 -0.112577707
v -0.473623037 0.141414344 -0.117497355
v -0.4682971 0.146149978 3.39089254E-08
v -0.488764644 0.141414344 3E-08
v -0.453792721 0.14614214 0.112577766
v -0.473623037 0.141414344 0.117497407
v -0.410268545 0.146147 0.225154415
v -0.42819944 0.141414344 0.234994814
v -0.329411626 0.14612402 0.329410732
v -0.34380126 0.141414344 0.343800873
v -0.2251538 0.146146864 0.410268039
v -0.234995112 0.141414344 0.428198725
v -0.112578124 0.1461421 0.4537918
v -0.117497556 0.141414344 0.47362268
v 0 0.146150038 0.46829614
v 0 0.141414344 0.488764077
v 0.1125769 0.146142066 0.453791767
v 0.117497556 0.141414344 0.47362268
v 0.2251538 0.146146744 0.410268456
v 0.234995112 0.141414344 0.428198725
v 0.329411626 0.14612411 0.329410732
v 0.34380126 0.141414344 0.343800873
v 0.410268545 0.146146491 0.225154877
v 0.428198218 0.141414344 0.234994814
v 0.453792721 0.14614214 0.112577766
v 0.473623037 0.141414344 0.117497407
v 0.4682959 0.146149859 3.39087975E-08
v 0.488763422 0.141414344 3E-08
v 0.453792721 0.146142066 -0.112577654
v 0.473623037 0.141414344 -0.117497355
v 0.410268545 0.146146491 -0.225154772
v 0.428198218 0.141414344 -0.234994709
v 0.329411626 0.14612411 -0.329410732
v 0.34380126 0.141414344 -0.343800873
v 0.2251538 0.146146744 -0.410268456
v 0.234995112 0.141414344 -0.428198725
v -0.114647217 -0.01758348 -0.20890516
v -0.167729482 -0.01758348 -0.167730018
v 0 -0.0175834782 -1.63258189E-08
v -0.208905026 -0.01758348 -0.114646852
v -0.0573229976 -0.01758348 -0.231066123
v 0 -0.01758348 -0.23845312
v 0.0573229976 -0.01758348 -0.231066123
v 0.114647217 -0.01758348 -0.20890516
v 0.167729482 -0.01758348 -0.167730018
v 0.208905026 -0.01758348 -0.114646852
v -0.231065676 -0.01758348 -0.05732343
v 0.231065676 -0.01758348 -0.05732343
v -0.238453358 -0.01758348 -1E-08
v 0.238453358 -0.01758348 -1E-08
v -0.231065676 -0.01758348 0.05732339
v 0.231065676 -0.01758348 0.05732339
v -0.208905026 -0.01758348 0.114646785
v 0.208905026 -0.01758348 0.114646785
v -0.167729482 -0.01758348 0.167730018
v -0.114647217 -0.01758348 0.20890516
v -0.0573229976 -0.01758348 0.231066123
v 0 -0.01758348 0.23845312
v 0.0573229976 -0.01758348 0.231066123
v 0.114647217 -0.01758348 0.20890516
v 0.167729482 -0.01758348 0.167730018
v -0.124017328 -0.0125123132 0.225978464
v -0.1814441 -0.0125064682 0.1814454
v -0.062009275 -0.0125111407 0.24995254
v 0 -0.0125133032 0.257939458
v 0.062009275 -0.0125111407 0.24995254
v 0.124017328 -0.0125123132 0.225978464
v 0.1814441 -0.0125064682 0.1814454
v 0.225977778 -0.0125125824 0.124016307
v 0.249951169 -0.0125115141 0.06200856
v 0.25794068 -0.01251323 -1.010683E-08
v 0.249951169 -0.0125115141 -0.0620086044
v 0.225977778 -0.0125125824 -0.124016389
v 0.1814441 -0.0125064682 -0.1814454
v 0.124017328 -0.0125123132 -0.225978464
v 0.062009275 -0.0125111407 -0.24995254
v 0 -0.0125133032 -0.257939458
v -0.062009275 -0.0125111407 -0.24995254
v -0.124017328 -0.0125123132 -0.225978464
v -0.1814441 -0.0125064682 -0.1814454
v -0.225977778 -0.0125125824 -0.124016389
v -0.249951169 -0.0125110643 -0.0620088577
v -0.25794068 -0.01251323 -1.010683E-08
v -0.249951169 -0.0125110634 0.062008813
v -0.225977778 -0.0125125824 0.124016307
v -0.296224356 0.0310116783 0.07348803
v -0.30569458 0.0310116783 -1E-08
v -0.397368163 0.08131197 0.09857985
v -0.410070777 0.08131197 -1.2125704E-08
v -0.473623037 0.101794824 0.117497392
v -0.488764644 0.101794824 0
v -0.397368163 0.08131197 -0.09857987
v -0.473623037 0.101794824 -0.117497392
v -0.3592566 0.08131197 -0.197159737
v -0.42819944 0.101794824 -0.234994784
v -0.288447261 0.08131197 -0.288447678
v -0.34380126 0.101794824 -0.343800873
v -0.197159424 0.08131197 -0.3592572
v -0.234995112 0.101794824 -0.428198725
v -0.09858032 0.08131197 -0.397367746
v -0.117497556 0.101794824 -0.47362268
v 0 0.08131197 -0.410071164
v 0 0.101794824 -0.488764077
v 0.09858032 0.08131197 -0.397367746
v 0.117497556 0.101794824 -0.47362268
v 0.197159424 0.08131197 -0.3592572
v 0.234995112 0.101794824 -0.428198725
v 0.288447261 0.08131197 -0.288447678
v 0.34380126 0.101794824 -0.343800873
v 0.3592566 0.08131197 -0.197159737
v 0.428198218 0.101794824 -0.234994784
v 0.397366941 0.08131197 -0.09857987
v 0.473623037 0.101794824 -0.117497392
v 0.410070777 0.08131197 -1.2125704E-08
v 0.488763422 0.101794824 0
v 0.397366941 0.08131197 0.09857985
v 0.473623037 0.101794824 0.117497392
v 0.3592566 0.08131197 0.1971597
v 0.428198218 0.101794824 0.234994784
v 0.288447261 0.08131197 0.288447678
v 0.34380126 0.101794824 0.343800873
v 0.197159424 0.08131197 0.3592572
v 0.234995112 0.101794824 0.428198725
v 0.09858032 0.08131197 0.397367746
v 0.117497556 0.101794824 0.47362268
v 0 0.08131197 0.410071164
v 0 0.101794824 0.488764077
v -0.09858032 0.08131197 0.397367746
v -0.117497556 0.101794824 0.47362268
v -0.197159424 0.08131197 0.3592572
v -0.234995112 0.101794824 0.428198725
v -0.288447261 0.08131197 0.288447678
v -0.34380126 0.101794824 0.343800873
v -0.3592566 0.08131197 0.1971597
v -0.42819944 0.101794824 0.234994784
v -0.215028077 0.0310116783 0.215028226
v -0.146976322 0.0310116783 0.267814368
v -0.07348755 0.0310116783 0.296224535
v 0 0.0310116783 0.30569458
v 0.07348755 0.0310116783 0.296224535
v 0.146976322 0.0310116783 0.267814368
v 0.215028077 0.0310116783 0.215028226
v 0.267814934 0.0310116783 0.146976054
v 0.296224356 0.0310116783 0.07348803
v 0.30569458 0.0310116783 -1E-08
v 0.296224356 0.0310116783 -0.07348806
v 0.267814934 0.0310116783 -0.146976128
v 0.215028077 0.0310116783 -0.215028226
v 0.146976322 0.0310116783 -0.267814368
v 0.07348755 0.0310116783 -0.296224535
v 0 0.0310116783 -0.30569458
v -0.07348755 0.0310116783 -0.296224535
v -0.146976322 0.0310116783 -0.267814368
v -0.215028077 0.0310116783 -0.215028226
v -0.267814934 0.0310116783 -0.146976128
v -0.296224356 0.0310116783 -0.07348806
v -0.267814934 0.0310116783 0.146976054
v -0.34380126 0.141414344 -0.343800873
v -0.350976557 0.112314537 -0.350976
v -0.239898682 0.112314537 -0.43713516
v -0.234995112 0.141414344 -0.428198725
v -0.119949952 0.112314537 -0.4835071
v -0.117497556 0.141414344 -0.47362268
v 0 0.112314537 -0.4989644
v 0 0.141414344 -0.488764077
v 0.119949952 0.112314537 -0.4835071
v 0.117497556 0.141414344 -0.47362268
v 0.239898682 0.112314537 -0.43713516
v 0.234995112 0.141414344 -0.428198725
v -0.42819944 0.141414344 -0.234994709
v -0.437135 0.112314537 -0.239899039
v 0.234995112 0.141414344 -0.428198725
v 0.239898682 0.112314537 -0.43713516
v 0.350975335 0.112314537 -0.350976
v 0.34380126 0.141414344 -0.343800873
v 0.437135 0.112314537 -0.239899039
v 0.428198218 0.141414344 -0.234994709
v 0.483507067 0.112314537 -0.11994952
v 0.473623037 0.141414344 -0.117497355
v 0.498964846 0.112314537 1E-08
v 0.488763422 0.141414344 3E-08
v 0.483507067 0.112314537 0.119949542
v 0.473623037 0.141414344 0.117497407
v 0.437135 0.112314537 0.239899084
v 0.428198218 0.141414344 0.234994814
v 0.473623037 0.141414344 0.117497407
v 0.483507067 0.112314537 0.119949542
v 0.350975335 0.112314537 0.350976
v 0.34380126 0.141414344 0.343800873
v 0.239898682 0.112314537 0.43713516
v 0.234995112 0.141414344 0.428198725
v 0.119949952 0.112314537 0.4835071
v 0.117497556 0.141414344 0.47362268
v 0 0.112314537 0.4989644
v 0 0.141414344 0.488764077
v -0.119949952 0.112314537 0.4835071
v -0.117497556 0.141414344 0.47362268
v -0.239898682 0.112314537 0.43713516
v -0.234995112 0.141414344 0.428198725
v -0.350976557 0.112314537 0.350976
v -0.34380126 0.141414344 0.343800873
v -0.234995112 0.141414344 0.428198725
v -0.239898682 0.112314537 0.43713516
v -0.437135 0.112314537 0.239899084
v -0.42819944 0.141414344 0.234994814
v -0.483507067 0.112314537 0.119949542
v -0.473623037 0.141414344 0.117497407
v -0.498964846 0.112314537 1E-08
v -0.488764644 0.141414344 3E-08
v -0.483507067 0.112314537 -0.11994952
v -0.473623037 0.141414344 -0.117497355
v -0.437135 0.112314537 -0.239899039
v -0.42819944 0.141414344 -0.234994709
vt 0.129638672 0.401123047
vt 0.132080078 0.403564453
vt 0.205932617 0.346435547
vt 0.2043457 0.34375
vt 0.285888672 0.315673828
vt 0.2849121 0.312255859
vt 0.365478516 0.305664063
vt 0.365478516 0.3017578
vt 0.4453125 0.315673828
vt 0.446289063 0.312255859
vt 0.524902344 0.346435547
vt 0.526855469 0.34375
vt 0.5991211 0.403564453
vt 0.6015625 0.401123047
vt 0.6557617 0.477294922
vt 0.6586914 0.475585938
vt 0.686523438 0.5571289
vt 0.6904297 0.556152344
vt 0.696777344 0.63671875
vt 0.7006836 0.63671875
vt 0.686523438 0.7163086
vt 0.6904297 0.717285156
vt 0.6557617 0.795898438
vt 0.6586914 0.797851563
vt 0.5991211 0.8696289
vt 0.6015625 0.8720703
vt 0.524902344 0.9267578
vt 0.526855469 0.9296875
vt 0.4453125 0.957519531
vt 0.446289063 0.9609375
vt 0.365478516 0.967773438
vt 0.365478516 0.9716797
vt 0.285888672 0.957519531
vt 0.2849121 0.9609375
vt 0.205932617 0.9267578
vt 0.2043457 0.9296875
vt 0.132080078 0.8696289
vt 0.129638672 0.8720703
vt 0.07507324 0.795898438
vt 0.07232666 0.797851563
vt 0.0444030762 0.7163086
vt 0.0407409668 0.717285156
vt 0.0341796875 0.63671875
vt 0.0304718018 0.63671875
vt 0.0444030762 0.5571289
vt 0.0407409668 0.556152344
vt 0.07507324 0.477294922
vt 0.07232666 0.475585938
vt 0.294921875 0.5029297
vt 0.260009766 0.5292969
vt 0.365478516 0.63671875
vt 0.232421875 0.5649414
vt 0.331298828 0.490234375
vt 0.367675781 0.486572266
vt 0.4033203 0.4921875
vt 0.4387207 0.506835938
vt 0.4711914 0.5332031
vt 0.4958496 0.566894531
vt 0.218261719 0.602539063
vt 0.508789063 0.6020508
vt 0.214599609 0.6386719
vt 0.5131836 0.6376953
vt 0.220336914 0.6748047
vt 0.5083008 0.6723633
vt 0.235351563 0.7104492
vt 0.494384766 0.707519531
vt 0.2619629 0.7426758
vt 0.2956543 0.7675781
vt 0.331298828 0.7807617
vt 0.366699219 0.784667969
vt 0.401855469 0.7792969
vt 0.436767578 0.765625
vt 0.469238281 0.7402344
vt 0.194824219 0.639648438
vt 0.198730469 0.59765625
vt 0.214477539 0.5551758
vt 0.245605469 0.514648438
vt 0.2854004 0.4855957
vt 0.327392578 0.470703125
vt 0.368652344 0.467041016
vt 0.4091797 0.473876953
vt 0.448730469 0.491210938
vt 0.484863281 0.5209961
vt 0.512207031 0.55859375
vt 0.526855469 0.598144531
vt 0.53125 0.6376953
vt 0.5258789 0.6772461
vt 0.5102539 0.7163086
vt 0.482177734 0.7529297
vt 0.446044922 0.78125
vt 0.406738281 0.7973633
vt 0.367431641 0.8027344
vt 0.327392578 0.7988281
vt 0.287353516 0.7841797
vt 0.249389648 0.756835938
vt 0.219238281 0.7207031
vt 0.201660156 0.680664063
vt 0.4165039 0.8413086
vt 0.467285156 0.821777344
vt 0.365478516 0.848144531
vt 0.314697266 0.8413086
vt 0.263916016 0.821777344
vt 0.216552734 0.78515625
vt 0.180053711 0.73828125
vt 0.16027832 0.6875
vt 0.1538086 0.63671875
vt 0.16027832 0.5859375
vt 0.180053711 0.53515625
vt 0.216552734 0.4880371
vt 0.263916016 0.451416016
vt 0.314697266 0.431884766
vt 0.365478516 0.425292969
vt 0.4165039 0.431884766
vt 0.467285156 0.451416016
vt 0.514648438 0.4880371
vt 0.55078125 0.53515625
vt 0.5708008 0.5859375
vt 0.577148438 0.63671875
vt 0.5708008 0.6875
vt 0.55078125 0.73828125
vt 0.514648438 0.78515625
vt 0.559082031 0.5307617
vt 0.579589844 0.5834961
vt 0.5209961 0.481689453
vt 0.4716797 0.443603516
vt 0.418457031 0.422851563
vt 0.365478516 0.416259766
vt 0.3125 0.422851563
vt 0.259521484 0.443603516
vt 0.210205078 0.481689453
vt 0.172119141 0.5307617
vt 0.151489258 0.5834961
vt 0.14465332 0.63671875
vt 0.151489258 0.6894531
vt 0.172119141 0.7426758
vt 0.210205078 0.7915039
vt 0.259521484 0.829589844
vt 0.3125 0.850585938
vt 0.365478516 0.8569336
vt 0.418457031 0.850585938
vt 0.4716797 0.829589844
vt 0.5209961 0.7915039
vt 0.559082031 0.7426758
vt 0.579589844 0.6894531
vt 0.5864258 0.63671875
vt 0.438476563 0.930664063
vt 0.365478516 0.9399414
vt 0.442138672 0.9448242
vt 0.365478516 0.954589844
vt 0.292480469 0.930664063
vt 0.2890625 0.9448242
vt 0.219482422 0.90234375
vt 0.212646484 0.915039063
vt 0.151977539 0.850097656
vt 0.141601563 0.860351563
vt 0.09942627 0.782714844
vt 0.08685303 0.7895508
vt 0.07128906 0.709472656
vt 0.05709839 0.7128906
vt 0.06185913 0.63671875
vt 0.0473327637 0.63671875
vt 0.07128906 0.563964844
vt 0.05709839 0.5600586
vt 0.09942627 0.490722656
vt 0.08685303 0.483886719
vt 0.151977539 0.423339844
vt 0.141601563 0.413085938
vt 0.219482422 0.3708496
vt 0.212646484 0.3581543
vt 0.292480469 0.342773438
vt 0.2890625 0.328369141
vt 0.365478516 0.333251953
vt 0.365478516 0.318603516
vt 0.438476563 0.342773438
vt 0.442138672 0.328369141
vt 0.51171875 0.3708496
vt 0.5185547 0.3581543
vt 0.579101563 0.423339844
vt 0.589355469 0.413085938
vt 0.631835938 0.490722656
vt 0.644042969 0.483886719
vt 0.659667969 0.563964844
vt 0.6738281 0.5600586
vt 0.6694336 0.63671875
vt 0.68359375 0.63671875
vt 0.659667969 0.709472656
vt 0.6738281 0.7128906
vt 0.631835938 0.782714844
vt 0.644042969 0.7895508
vt 0.579101563 0.850097656
vt 0.589355469 0.860351563
vt 0.51171875 0.90234375
vt 0.5185547 0.915039063
vt 0.7314453 0.310791016
vt 0.7128906 0.296386719
vt 0.7709961 0.238037109
vt 0.698730469 0.277832031
vt 0.751464844 0.318359375
vt 0.7709961 0.321044922
vt 0.7910156 0.318359375
vt 0.811035156 0.310791016
vt 0.829589844 0.296386719
vt 0.84375 0.277832031
vt 0.690917969 0.258056641
vt 0.8515625 0.258056641
vt 0.688476563 0.238037109
vt 0.8540039 0.238037109
vt 0.690917969 0.218139648
vt 0.8515625 0.218139648
vt 0.698730469 0.198242188
vt 0.84375 0.198242188
vt 0.7128906 0.17980957
vt 0.7314453 0.165527344
vt 0.751464844 0.157836914
vt 0.7709961 0.155273438
vt 0.7910156 0.157836914
vt 0.811035156 0.165527344
vt 0.829589844 0.17980957
vt 0.7290039 0.160888672
vt 0.7089844 0.176025391
vt 0.75 0.152709961
vt 0.7709961 0.150024414
vt 0.792480469 0.152709961
vt 0.813476563 0.160888672
vt 0.8330078 0.176025391
vt 0.848144531 0.195800781
vt 0.8564453 0.216918945
vt 0.859375 0.238037109
vt 0.8564453 0.259277344
vt 0.848144531 0.280517578
vt 0.8330078 0.300048828
vt 0.813476563 0.315185547
vt 0.792480469 0.323486328
vt 0.7709961 0.326171875
vt 0.75 0.323486328
vt 0.7290039 0.315185547
vt 0.7089844 0.300048828
vt 0.693847656 0.280517578
vt 0.6855469 0.259277344
vt 0.683105469 0.238037109
vt 0.6855469 0.216918945
vt 0.693847656 0.195800781
vt 0.6621094 0.21105957
vt 0.6586914 0.238037109
vt 0.613769531 0.198974609
vt 0.6088867 0.238037109
vt 0.5805664 0.1907959
vt 0.574707031 0.238037109
vt 0.613769531 0.2770996
vt 0.5805664 0.2854004
vt 0.62890625 0.3161621
vt 0.5991211 0.332519531
vt 0.6567383 0.352294922
vt 0.6328125 0.376464844
vt 0.6928711 0.3803711
vt 0.6767578 0.4104004
vt 0.7319336 0.3955078
vt 0.7236328 0.4284668
vt 0.7709961 0.400390625
vt 0.7709961 0.4345703
vt 0.8100586 0.3955078
vt 0.8183594 0.4284668
vt 0.8491211 0.3803711
vt 0.865722656 0.4104004
vt 0.8852539 0.352294922
vt 0.9091797 0.376464844
vt 0.9135742 0.3161621
vt 0.9433594 0.332519531
vt 0.928710938 0.2770996
vt 0.9614258 0.2854004
vt 0.93359375 0.238037109
vt 0.967773438 0.238037109
vt 0.928710938 0.198974609
vt 0.9614258 0.1907959
vt 0.9135742 0.16003418
vt 0.9433594 0.143554688
vt 0.8852539 0.123840332
vt 0.9091797 0.09979248
vt 0.8491211 0.0958251953
vt 0.865722656 0.06585693
vt 0.8100586 0.08068848
vt 0.8183594 0.0475769043
vt 0.7709961 0.0756835938
vt 0.7709961 0.0415039063
vt 0.7319336 0.08068848
vt 0.7236328 0.0475769043
vt 0.6928711 0.0958251953
vt 0.6767578 0.06585693
vt 0.6567383 0.123840332
vt 0.6328125 0.09979248
vt 0.62890625 0.16003418
vt 0.5991211 0.143554688
vt 0.691894531 0.158813477
vt 0.7167969 0.139526367
vt 0.7441406 0.12902832
vt 0.7709961 0.125610352
vt 0.798339844 0.12902832
vt 0.8251953 0.139526367
vt 0.850585938 0.158813477
vt 0.8696289 0.183959961
vt 0.8803711 0.21105957
vt 0.883789063 0.238037109
vt 0.8803711 0.265136719
vt 0.8696289 0.292236328
vt 0.850585938 0.3173828
vt 0.8251953 0.336669922
vt 0.798339844 0.347167969
vt 0.7709961 0.350585938
vt 0.7441406 0.347167969
vt 0.7167969 0.336669922
vt 0.691894531 0.3173828
vt 0.6723633 0.292236328
vt 0.6621094 0.265136719
vt 0.6723633 0.183959961
vt 0.141601563 0.860351563
vt 0.132080078 0.8696289
vt 0.205932617 0.9267578
vt 0.212646484 0.915039063
vt 0.285888672 0.957519531
vt 0.2890625 0.9448242
vt 0.365478516 0.967773438
vt 0.365478516 0.954589844
vt 0.4453125 0.957519531
vt 0.442138672 0.9448242
vt 0.524902344 0.9267578
vt 0.5185547 0.915039063
vt 0.08685303 0.7895508
vt 0.07507324 0.795898438
vt 0.5185547 0.915039063
vt 0.524902344 0.9267578
vt 0.5991211 0.8696289
vt 0.589355469 0.860351563
vt 0.6557617 0.795898438
vt 0.644042969 0.7895508
vt 0.686523438 0.7163086
vt 0.6738281 0.7128906
vt 0.696777344 0.63671875
vt 0.68359375 0.63671875
vt 0.686523438 0.5571289
vt 0.6738281 0.5600586
vt 0.6557617 0.477294922
vt 0.644042969 0.483886719
vt 0.6738281 0.5600586
vt 0.686523438 0.5571289
vt 0.5991211 0.403564453
vt 0.589355469 0.413085938
vt 0.524902344 0.346435547
vt 0.5185547 0.3581543
vt 0.4453125 0.315673828
vt 0.442138672 0.328369141
vt 0.365478516 0.305664063
vt 0.365478516 0.318603516
vt 0.285888672 0.315673828
vt 0.2890625 0.328369141
vt 0.205932617 0.346435547
vt 0.212646484 0.3581543
vt 0.132080078 0.403564453
vt 0.141601563 0.413085938
vt 0.212646484 0.3581543
vt 0.205932617 0.346435547
vt 0.07507324 0.477294922
vt 0.08685303 0.483886719
vt 0.0444030762 0.5571289
vt 0.05709839 0.5600586
vt 0.0341796875 0.63671875
vt 0.0473327637 0.63671875
vt 0.0444030762 0.7163086
vt 0.05709839 0.7128906
vt 0.07507324 0.795898438
vt 0.08685303 0.7895508
vn -0.3569671 -0.8632206 0.356966078
vn -0.6905503 -0.215133354 0.690549
vn -0.480400026 -0.21586068 0.8500706
vn -0.2476231 -0.8641574 0.438080847
vn -0.24022375 -0.215404481 0.9465165
vn -0.123919293 -0.8638856 0.4882067
vn 0 -0.2156657 0.9764673
vn 0 -0.8642201 0.503114
vn 0.240223408 -0.215406924 0.946516037
vn 0.123918705 -0.863886654 0.488204956
vn 0.480401248 -0.215865061 0.8500688
vn 0.247623742 -0.864157557 0.438080162
vn 0.6905495 -0.215137348 0.6905486
vn 0.356963843 -0.863223255 0.35696283
vn 0.850069046 -0.215861484 0.4804024
vn 0.438079745 -0.8641577 0.247624189
vn 0.9465175 -0.215401649 0.24022226
vn 0.4882115 -0.86388284 0.123919278
vn 0.97646904 -0.215657726 1.96009537E-07
vn 0.5031297 -0.864210963 1.91957938E-07
vn 0.946517 -0.215404481 -0.240221873
vn 0.48820737 -0.863885343 -0.123918153
vn 0.8500697 -0.215859726 -0.480402052
vn 0.438073575 -0.864161849 -0.247620434
vn 0.690550268 -0.215127543 -0.690550864
vn 0.3569625 -0.8632238 -0.35696283
vn 0.480402559 -0.215854347 -0.8500708
vn 0.247626767 -0.86415416 -0.438085139
vn 0.24022378 -0.215401024 -0.9465173
vn 0.123919569 -0.8638848 -0.488208055
vn 0 -0.21566163 -0.9764682
vn 0 -0.8642185 -0.503116846
vn -0.240223825 -0.215402573 -0.946516931
vn -0.123919532 -0.8638846 -0.488208354
vn -0.480400115 -0.2158607 -0.850070536
vn -0.247623146 -0.864157438 -0.438080817
vn -0.6905516 -0.215129688 -0.6905489
vn -0.356971622 -0.8632172 -0.356969774
vn -0.8500719 -0.215850145 -0.4804024
vn -0.438098341 -0.864145339 -0.247634351
vn -0.9465179 -0.215398312 -0.24022384
vn -0.488221467 -0.8638767 -0.123922773
vn -0.976468 -0.21566242 -3.898161E-07
vn -0.5031303 -0.8642106 -3.47075343E-07
vn -0.9465167 -0.215404347 0.240223125
vn -0.4882129 -0.863881946 0.123920344
vn -0.850070357 -0.21585834 0.4804015
vn -0.438088179 -0.864152133 0.247628659
vn 0.08449527 0.9851512 -0.1494584
vn 0.121919207 0.9850235 -0.1219198
vn 0 1 0
vn 0.149462715 0.985150456 -0.08449562
vn 0.0422854573 0.9851212 -0.166577861
vn 2.71446481E-07 0.9851677 -0.171594545
vn -0.042285163 0.9851216 -0.1665758
vn -0.0844941 0.98515147 -0.149457008
vn -0.121921808 0.9850231 -0.12192075
vn -0.1494672 0.9851495 -0.08449893
vn 0.166578457 0.985121 -0.042287346
vn -0.166580126 0.9851207 -0.04228767
vn 0.171595156 0.985167563 1.43857187E-06
vn -0.1715809 0.985170066 -6.157185E-07
vn 0.1665876 0.985119462 0.0422880165
vn -0.1665721 0.9851222 0.04228582
vn 0.149458677 0.9851513 0.08449334
vn -0.149464086 0.9851501 0.0844976
vn 0.1219179 0.985023737 0.121919177
vn 0.084495835 0.985150933 0.149459288
vn 0.0422854535 0.9851212 0.16657798
vn 2.70500664E-07 0.9851677 0.171594545
vn -0.0422847942 0.9851218 0.166574717
vn -0.08449518 0.985151231 0.1494578
vn -0.121923268 0.9850227 0.121922463
vn 0.494649857 0.8690924 7.617093E-07
vn 0.480008155 0.868762851 -0.121833369
vn 0.430754036 0.86901 -0.24345988
vn 0.350995719 0.8681033 -0.350996673
vn 0.243461058 0.8690097 -0.430753917
vn 0.121833161 0.8687629 -0.4800081
vn 6.366521E-07 0.869094968 -0.494645268
vn -0.121832825 0.868765235 -0.480003983
vn -0.243461519 0.8690089 -0.430755168
vn -0.350997657 0.86810267 -0.350996435
vn -0.430757731 0.869007468 -0.243462279
vn -0.4800096 0.8687618 -0.121835239
vn -0.4946374 0.869099438 -8.962422E-07
vn -0.4800004 0.8687671 0.121833354
vn -0.4307555 0.8690088 0.243461534
vn -0.350998729 0.8681018 0.350997567
vn -0.243462324 0.8690083 0.430756032
vn -0.121833004 0.8687646 0.480005056
vn 5.191748E-07 0.869094431 0.4946463
vn 0.121833518 0.8687623 0.480009168
vn 0.243460864 0.8690096 0.430754155
vn 0.3509923 0.8681058 0.3509938
vn 0.4307475 0.8690142 0.243456215
vn 0.480008662 0.868762732 0.121832244
vn -0.139673978 0.823162436 0.5503589
vn -0.2790877 0.823504269 0.4939137
vn 4.61185977E-07 0.8235628 0.567225158
vn 0.139675155 0.823158741 0.550364
vn 0.2790865 0.8235046 0.493913919
vn 0.4022567 0.82242316 0.4022558
vn 0.4939143 0.823503256 0.279089838
vn 0.5503584 0.823163033 0.139672026
vn 0.567234039 0.8235567 -1.0104842E-06
vn 0.550366461 0.8231575 -0.139673218
vn 0.4939124 0.823504865 -0.2790884
vn 0.4022557 0.822423756 -0.402255625
vn 0.2790869 0.8235046 -0.4939137
vn 0.1396744 0.8231606 -0.5503615
vn 4.53686965E-07 0.8235642 -0.567223132
vn -0.1396732 0.823164463 -0.55035603
vn -0.2790876 0.823505 -0.493912667
vn -0.40225327 0.822425842 -0.402253568
vn -0.493908763 0.8235079 -0.2790858
vn -0.5503637 0.8231592 -0.139674
vn -0.567236 0.82355535 -6.13039447E-07
vn -0.550357 0.8231641 0.139671117
vn -0.493904144 0.8235108 0.279085547
vn -0.402255267 0.8224244 0.40225473
vn -0.279522657 0.9470657 -0.157904118
vn -0.311577827 0.9469256 -0.079065375
vn -0.227794111 0.946688533 -0.227795318
vn -0.157902822 0.9470665 -0.279520839
vn -0.07906512 0.946927369 -0.311572284
vn 0 0.94706744 -0.3210349
vn 0.0790665746 0.946926 -0.3115762
vn 0.157903954 0.947065055 -0.279524982
vn 0.227797151 0.94668746 -0.2277967
vn 0.279527247 0.947063863 -0.157906741
vn 0.311581075 0.9469243 -0.0790671557
vn 0.32104224 0.9470649 -3.14207455E-07
vn 0.31158042 0.9469245 0.07906743
vn 0.2795324 0.947061837 0.1579099
vn 0.22780019 0.946686268 0.22779873
vn 0.15790382 0.947065055 0.279525042
vn 0.0790667161 0.946925461 0.311577767
vn 1.36694268E-07 0.947066963 0.32103616
vn -0.07906541 0.946927 0.311573356
vn -0.15790306 0.9470662 0.279521555
vn -0.227796629 0.94668746 0.22779721
vn -0.279516846 0.947067559 0.157903269
vn -0.3115721 0.946927667 0.07906246
vn -0.3210436 0.947064459 -3.92047582E-07
vn 0.0110095963 0.999000132 -0.0433303528
vn -1.51572266E-07 0.999003 -0.0446442328
vn 0.163895592 0.7457365 -0.645767331
vn 0 0.746161 -0.6657656
vn -0.0110102538 0.9990001 -0.0433326028
vn -0.163896382 0.7457343 -0.6457696
vn -0.0219520312 0.999007761 -0.0387519561
vn -0.327378631 0.7464844 -0.57929635
vn -0.03158791 0.9990017 -0.03158859
vn -0.471430779 0.745322764 -0.471430779
vn -0.038757138 0.9990075 -0.0219546352
vn -0.5793091 0.7464715 -0.327385515
vn -0.0433401167 0.9989997 -0.0110117933
vn -0.645783544 0.7457214 -0.163900033
vn -0.0446466133 0.9990029 -5.3287124E-07
vn -0.665779769 0.746148348 -6.915778E-07
vn -0.0433349349 0.998999953 0.0110108526
vn -0.645776868 0.745727539 0.1638987
vn -0.038755 0.999007642 0.0219533946
vn -0.579304 0.7464767 0.327382684
vn -0.0315864831 0.9990018 0.0315869525
vn -0.471428126 0.7453259 0.471428573
vn -0.0219512954 0.999007761 0.0387507454
vn -0.327378452 0.746484756 0.579296052
vn -0.0110097956 0.999000132 0.04333163
vn -0.163896456 0.7457343 0.645769656
vn 0 0.999003 0.0446445122
vn 0 0.7461599 0.665766835
vn 0.01100962 0.999000132 0.0433309637
vn 0.163896054 0.7457347 0.645769238
vn 0.02195156 0.999007761 0.03875118
vn 0.3273806 0.7464824 0.57929796
vn 0.0315874256 0.9990018 0.03158655
vn 0.471427321 0.7453276 0.4714267
vn 0.03875433 0.999007642 0.021952929
vn 0.5792967 0.7464837 0.3273798
vn 0.0433397442 0.9989998 0.0110120671
vn 0.6457774 0.745727241 0.163897648
vn 0.0446497239 0.999002755 5.058726E-07
vn 0.6657786 0.746149361 6.48885134E-07
vn 0.04333477 0.998999953 -0.0110113742
vn 0.645771742 0.7457323 -0.163896784
vn 0.0387554429 0.9990075 -0.0219538379
vn 0.579291046 0.7464895 -0.327376574
vn 0.03158837 0.999001741 -0.03158709
vn 0.471422374 0.7453339 -0.4714216
vn 0.0219511949 0.999007761 -0.0387508571
vn 0.3273786 0.746485531 -0.5792949
vn 0 -1 0
vn 0 -1 0
vn 0 -1 0
vn 0 -1 0
vn 0 -1 0
vn 0 -1 0
vn 0 -1 0
vn 0 -1 0
vn 0 -1 0
vn 0 -1 0
vn 0 -1 0
vn 0 -1 0
vn 0 -1 0
vn 0 -1 0
vn 0 -1 0
vn 0 -1 0
vn 0 -1 0
vn 0 -1 0
vn 0 -1 0
vn 0 -1 0
vn 0 -1 0
vn 0 -1 0
vn 0 -1 0
vn 0 -1 0
vn 0 -1 0
vn -0.2344643 -0.8791969 0.414776355
vn -0.338038385 -0.8783282 0.338038
vn -0.117322549 -0.878974736 0.462210864
vn 1.80741281E-07 -0.879285753 0.476294726
vn 0.117322534 -0.8789744 0.4622116
vn 0.234464556 -0.8791968 0.414776236
vn 0.3380399 -0.878327 0.338039577
vn 0.414774269 -0.8791986 0.234461516
vn 0.462208062 -0.8789759 0.117324591
vn 0.476292133 -0.8792871 0
vn 0.4622103 -0.8789747 -0.117325261
vn 0.41477713 -0.879196763 -0.2344632
vn 0.338040173 -0.878326952 -0.3380396
vn 0.234464616 -0.879196167 -0.414777577
vn 0.117323242 -0.878973842 -0.4622124
vn 0 -0.879286647 -0.476293117
vn -0.117322423 -0.878975 -0.4622104
vn -0.234463245 -0.8791979 -0.414774835
vn -0.338038 -0.8783285 -0.3380375
vn -0.41477713 -0.8791973 -0.234461173
vn -0.462214082 -0.87897253 -0.117326207
vn -0.4762987 -0.879283547 1.48054E-07
vn -0.462217242 -0.878970742 0.117327236
vn -0.41477856 -0.8791966 0.2344614
vn -0.5430091 -0.828337848 0.137831569
vn -0.5596161 -0.8287519 0
vn -0.334471226 -0.9385736 0.08490401
vn -0.3445915 -0.9387528 -1.18026584E-07
vn -0.4882129 -0.863881946 0.123920344
vn -0.5031303 -0.8642106 -3.47075343E-07
vn -0.334472477 -0.9385731 -0.0849041939
vn -0.488221467 -0.8638767 -0.123922773
vn -0.300151855 -0.9386774 -0.169687182
vn -0.438098341 -0.864145339 -0.247634351
vn -0.244770288 -0.9381764 -0.244770542
vn -0.356971622 -0.8632172 -0.356969774
vn -0.169687346 -0.938677 -0.300152868
vn -0.247623146 -0.864157438 -0.438080817
vn -0.08490493 -0.9385725 -0.334474
vn -0.123919532 -0.8638846 -0.488208354
vn -2.10761755E-07 -0.9387524 -0.344592482
vn 0 -0.8642185 -0.503116846
vn 0.0849048346 -0.938573 -0.334472626
vn 0.123919569 -0.8638848 -0.488208055
vn 0.169688 -0.9386766 -0.300153881
vn 0.247626767 -0.86415416 -0.438085139
vn 0.2447714 -0.9381759 -0.244771346
vn 0.3569625 -0.8632238 -0.35696283
vn 0.300153077 -0.938677 -0.169686839
vn 0.438073575 -0.864161849 -0.247620434
vn 0.334473521 -0.9385727 -0.0849045739
vn 0.48820737 -0.863885343 -0.123918153
vn 0.3445934 -0.938752055 0
vn 0.5031297 -0.864210963 1.91957938E-07
vn 0.33447364 -0.938572645 0.084904626
vn 0.4882115 -0.86388284 0.123919278
vn 0.300153464 -0.938676834 0.169687092
vn 0.438079745 -0.8641577 0.247624189
vn 0.2447712 -0.9381761 0.24477084
vn 0.356963843 -0.863223255 0.35696283
vn 0.16968745 -0.9386769 0.300153136
vn 0.247623742 -0.864157557 0.438080162
vn 0.0849048346 -0.938573 0.3344726
vn 0.123918705 -0.863886654 0.488204956
vn -1.23646913E-07 -0.938752651 0.344591916
vn 0 -0.8642201 0.503114
vn -0.0849048644 -0.938572764 0.334473342
vn -0.123919293 -0.8638856 0.4882067
vn -0.169687316 -0.938677 0.300152838
vn -0.2476231 -0.8641574 0.438080847
vn -0.244770288 -0.938176453 0.244770452
vn -0.3569671 -0.8632206 0.356966078
vn -0.3001515 -0.9386775 0.169686988
vn -0.438088179 -0.864152133 0.247628659
vn -0.397082716 -0.827436149 0.397082865
vn -0.275497943 -0.82858783 0.487384021
vn -0.137831286 -0.828335643 0.5430126
vn 0 -0.8287523 0.5596157
vn 0.137830392 -0.8283372 0.5430105
vn 0.275496 -0.8285907 0.487380236
vn 0.3970824 -0.8274366 0.39708218
vn 0.487377316 -0.8285936 0.2754924
vn 0.5430086 -0.828338265 0.137831271
vn 0.5596174 -0.8287511 0
vn 0.5430092 -0.8283378 -0.137831345
vn 0.487378627 -0.8285925 -0.2754934
vn 0.397082925 -0.827436149 -0.397082657
vn 0.2754962 -0.8285901 -0.48738113
vn 0.13783066 -0.8283372 -0.5430103
vn -1.24569027E-07 -0.828753352 -0.5596142
vn -0.137830764 -0.828336656 -0.5430111
vn -0.275496572 -0.8285897 -0.487381548
vn -0.397083074 -0.827436 -0.397082925
vn -0.487378746 -0.82859236 -0.2754936
vn -0.543008864 -0.8283381 -0.13783145
vn -0.4873776 -0.8285934 0.2754926
vn -0.471430779 0.745322764 -0.471430779
vn -0.6905516 -0.215129688 -0.6905489
vn -0.480400115 -0.2158607 -0.850070536
vn -0.327378631 0.7464844 -0.57929635
vn -0.240223825 -0.215402573 -0.946516931
vn -0.163896382 0.7457343 -0.6457696
vn 0 -0.21566163 -0.9764682
vn 0 0.746161 -0.6657656
vn 0.24022378 -0.215401024 -0.9465173
vn 0.163895592 0.7457365 -0.645767331
vn 0.480402559 -0.215854347 -0.8500708
vn 0.3273786 0.746485531 -0.5792949
vn -0.5793091 0.7464715 -0.327385515
vn -0.8500719 -0.215850145 -0.4804024
vn 0.3273786 0.746485531 -0.5792949
vn 0.480402559 -0.215854347 -0.8500708
vn 0.690550268 -0.215127543 -0.690550864
vn 0.471422374 0.7453339 -0.4714216
vn 0.8500697 -0.215859726 -0.480402052
vn 0.579291046 0.7464895 -0.327376574
vn 0.946517 -0.215404481 -0.240221873
vn 0.645771742 0.7457323 -0.163896784
vn 0.97646904 -0.215657726 1.96009537E-07
vn 0.6657786 0.746149361 6.48885134E-07
vn 0.9465175 -0.215401649 0.24022226
vn 0.6457774 0.745727241 0.163897648
vn 0.850069046 -0.215861484 0.4804024
vn 0.5792967 0.7464837 0.3273798
vn 0.6457774 0.745727241 0.163897648
vn 0.9465175 -0.215401649 0.24022226
vn 0.6905495 -0.215137348 0.6905486
vn 0.471427321 0.7453276 0.4714267
vn 0.480401248 -0.215865061 0.8500688
vn 0.3273806 0.7464824 0.57929796
vn 0.240223408 -0.215406924 0.946516037
vn 0.163896054 0.7457347 0.645769238
vn 0 -0.2156657 0.9764673
vn 0 0.7461599 0.665766835
vn -0.24022375 -0.215404481 0.9465165
vn -0.163896456 0.7457343 0.645769656
vn -0.480400026 -0.21586068 0.8500706
vn -0.327378452 0.746484756 0.579296052
vn -0.6905503 -0.215133354 0.690549
vn -0.471428126 0.7453259 0.471428573
vn -0.327378452 0.746484756 0.579296052
vn -0.480400026 -0.21586068 0.8500706
vn -0.850070357 -0.21585834 0.4804015
vn -0.579304 0.7464767 0.327382684
vn -0.9465167 -0.215404347 0.240223125
vn -0.645776868 0.745727539 0.1638987
vn -0.976468 -0.21566242 -3.898161E-07
vn -0.665779769 0.746148348 -6.915778E-07
vn -0.9465179 -0.215398312 -0.24022384
vn -0.645783544 0.7457214 -0.163900033
vn -0.8500719 -0.215850145 -0.4804024
vn -0.5793091 0.7464715 -0.327385515
g m_sk_plate_02(Clone)_0
f 3/3/3 2/2/2 1/1/1
f 4/4/4 3/3/3 1/1/1
f 5/5/5 3/3/3 4/4/4
f 6/6/6 5/5/5 4/4/4
f 7/7/7 5/5/5 6/6/6
f 8/8/8 7/7/7 6/6/6
f 9/9/9 7/7/7 8/8/8
f 10/10/10 9/9/9 8/8/8
f 11/11/11 9/9/9 10/10/10
f 12/12/12 11/11/11 10/10/10
f 13/13/13 11/11/11 12/12/12
f 14/14/14 13/13/13 12/12/12
f 15/15/15 13/13/13 14/14/14
f 16/16/16 15/15/15 14/14/14
f 17/17/17 15/15/15 16/16/16
f 18/18/18 17/17/17 16/16/16
f 19/19/19 17/17/17 18/18/18
f 20/20/20 19/19/19 18/18/18
f 21/21/21 19/19/19 20/20/20
f 22/22/22 21/21/21 20/20/20
f 23/23/23 21/21/21 22/22/22
f 24/24/24 23/23/23 22/22/22
f 25/25/25 23/23/23 24/24/24
f 26/26/26 25/25/25 24/24/24
f 25/25/25 26/26/26 27/27/27
f 26/26/26 28/28/28 27/27/27
f 27/27/27 28/28/28 29/29/29
f 28/28/28 30/30/30 29/29/29
f 29/29/29 30/30/30 31/31/31
f 30/30/30 32/32/32 31/31/31
f 31/31/31 32/32/32 33/33/33
f 32/32/32 34/34/34 33/33/33
f 33/33/33 34/34/34 35/35/35
f 34/34/34 36/36/36 35/35/35
f 35/35/35 36/36/36 37/37/37
f 36/36/36 38/38/38 37/37/37
f 39/39/39 37/37/37 38/38/38
f 40/40/40 39/39/39 38/38/38
f 41/41/41 39/39/39 40/40/40
f 42/42/42 41/41/41 40/40/40
f 43/43/43 41/41/41 42/42/42
f 44/44/44 43/43/43 42/42/42
f 45/45/45 43/43/43 44/44/44
f 46/46/46 45/45/45 44/44/44
f 47/47/47 45/45/45 46/46/46
f 48/48/48 47/47/47 46/46/46
f 2/2/2 47/47/47 48/48/48
f 1/1/1 2/2/2 48/48/48
f 51/51/51 50/50/50 49/49/49
f 51/51/51 52/52/52 50/50/50
f 53/53/53 51/51/51 49/49/49
f 54/54/54 51/51/51 53/53/53
f 55/55/55 51/51/51 54/54/54
f 56/56/56 51/51/51 55/55/55
f 57/57/57 51/51/51 56/56/56
f 58/58/58 51/51/51 57/57/57
f 51/51/51 59/59/59 52/52/52
f 58/58/58 60/60/60 51/51/51
f 51/51/51 61/61/61 59/59/59
f 60/60/60 62/62/62 51/51/51
f 51/51/51 63/63/63 61/61/61
f 62/62/62 64/64/64 51/51/51
f 51/51/51 65/65/65 63/63/63
f 64/64/64 66/66/66 51/51/51
f 51/51/51 67/67/67 65/65/65
f 68/68/68 67/67/67 51/51/51
f 69/69/69 68/68/68 51/51/51
f 70/70/70 69/69/69 51/51/51
f 71/71/71 70/70/70 51/51/51
f 72/72/72 71/71/71 51/51/51
f 73/73/73 51/51/51 66/66/66
f 73/73/73 72/72/72 51/51/51
f 59/59/59 61/61/61 74/74/74
f 75/75/75 59/59/59 74/74/74
f 52/52/52 59/59/59 75/75/75
f 76/76/76 52/52/52 75/75/75
f 50/50/50 52/52/52 76/76/76
f 77/77/77 50/50/50 76/76/76
f 49/49/49 50/50/50 77/77/77
f 78/78/78 49/49/49 77/77/77
f 53/53/53 49/49/49 78/78/78
f 79/79/79 53/53/53 78/78/78
f 54/54/54 53/53/53 79/79/79
f 80/80/80 54/54/54 79/79/79
f 55/55/55 54/54/54 80/80/80
f 81/81/81 55/55/55 80/80/80
f 56/56/56 55/55/55 81/81/81
f 82/82/82 56/56/56 81/81/81
f 57/57/57 56/56/56 82/82/82
f 83/83/83 57/57/57 82/82/82
f 58/58/58 57/57/57 83/83/83
f 84/84/84 58/58/58 83/83/83
f 60/60/60 58/58/58 84/84/84
f 85/85/85 60/60/60 84/84/84
f 62/62/62 60/60/60 85/85/85
f 86/86/86 62/62/62 85/85/85
f 64/64/64 62/62/62 86/86/86
f 87/87/87 64/64/64 86/86/86
f 66/66/66 64/64/64 87/87/87
f 88/88/88 66/66/66 87/87/87
f 73/73/73 66/66/66 88/88/88
f 89/89/89 73/73/73 88/88/88
f 72/72/72 73/73/73 89/89/89
f 90/90/90 72/72/72 89/89/89
f 71/71/71 72/72/72 90/90/90
f 91/91/91 71/71/71 90/90/90
f 70/70/70 71/71/71 91/91/91
f 92/92/92 70/70/70 91/91/91
f 69/69/69 70/70/70 92/92/92
f 93/93/93 69/69/69 92/92/92
f 68/68/68 69/69/69 93/93/93
f 94/94/94 68/68/68 93/93/93
f 67/67/67 68/68/68 94/94/94
f 95/95/95 67/67/67 94/94/94
f 65/65/65 67/67/67 95/95/95
f 96/96/96 65/65/65 95/95/95
f 63/63/63 65/65/65 96/96/96
f 97/97/97 63/63/63 96/96/96
f 61/61/61 63/63/63 97/97/97
f 74/74/74 61/61/61 97/97/97
f 91/91/91 98/98/98 92/92/92
f 99/99/99 98/98/98 91/91/91
f 98/98/98 100/100/100 92/92/92
f 92/92/92 100/100/100 93/93/93
f 100/100/100 101/101/101 93/93/93
f 93/93/93 101/101/101 94/94/94
f 101/101/101 102/102/102 94/94/94
f 94/94/94 102/102/102 95/95/95
f 102/102/102 103/103/103 95/95/95
f 95/95/95 103/103/103 96/96/96
f 103/103/103 104/104/104 96/96/96
f 96/96/96 104/104/104 97/97/97
f 104/104/104 105/105/105 97/97/97
f 97/97/97 105/105/105 74/74/74
f 105/105/105 106/106/106 74/74/74
f 74/74/74 106/106/106 75/75/75
f 106/106/106 107/107/107 75/75/75
f 75/75/75 107/107/107 76/76/76
f 107/107/107 108/108/108 76/76/76
f 76/76/76 108/108/108 77/77/77
f 108/108/108 109/109/109 77/77/77
f 77/77/77 109/109/109 78/78/78
f 109/109/109 110/110/110 78/78/78
f 78/78/78 110/110/110 79/79/79
f 110/110/110 111/111/111 79/79/79
f 79/79/79 111/111/111 80/80/80
f 111/111/111 112/112/112 80/80/80
f 80/80/80 112/112/112 81/81/81
f 112/112/112 113/113/113 81/81/81
f 81/81/81 113/113/113 82/82/82
f 113/113/113 114/114/114 82/82/82
f 82/82/82 114/114/114 83/83/83
f 114/114/114 115/115/115 83/83/83
f 83/83/83 115/115/115 84/84/84
f 115/115/115 116/116/116 84/84/84
f 84/84/84 116/116/116 85/85/85
f 116/116/116 117/117/117 85/85/85
f 85/85/85 117/117/117 86/86/86
f 117/117/117 118/118/118 86/86/86
f 86/86/86 118/118/118 87/87/87
f 118/118/118 119/119/119 87/87/87
f 87/87/87 119/119/119 88/88/88
f 119/119/119 120/120/120 88/88/88
f 88/88/88 120/120/120 89/89/89
f 120/120/120 121/121/121 89/89/89
f 89/89/89 121/121/121 90/90/90
f 121/121/121 99/99/99 90/90/90
f 90/90/90 99/99/99 91/91/91
f 117/117/117 116/116/116 122/122/122
f 123/123/123 117/117/117 122/122/122
f 118/118/118 117/117/117 123/123/123
f 122/122/122 116/116/116 124/124/124
f 116/116/116 115/115/115 124/124/124
f 124/124/124 115/115/115 125/125/125
f 115/115/115 114/114/114 125/125/125
f 125/125/125 114/114/114 126/126/126
f 114/114/114 113/113/113 126/126/126
f 126/126/126 113/113/113 127/127/127
f 113/113/113 112/112/112 127/127/127
f 127/127/127 112/112/112 128/128/128
f 112/112/112 111/111/111 128/128/128
f 128/128/128 111/111/111 129/129/129
f 111/111/111 110/110/110 129/129/129
f 129/129/129 110/110/110 130/130/130
f 110/110/110 109/109/109 130/130/130
f 130/130/130 109/109/109 131/131/131
f 109/109/109 108/108/108 131/131/131
f 131/131/131 108/108/108 132/132/132
f 108/108/108 107/107/107 132/132/132
f 132/132/132 107/107/107 133/133/133
f 107/107/107 106/106/106 133/133/133
f 133/133/133 106/106/106 134/134/134
f 106/106/106 105/105/105 134/134/134
f 134/134/134 105/105/105 135/135/135
f 105/105/105 104/104/104 135/135/135
f 135/135/135 104/104/104 136/136/136
f 104/104/104 103/103/103 136/136/136
f 136/136/136 103/103/103 137/137/137
f 103/103/103 102/102/102 137/137/137
f 137/137/137 102/102/102 138/138/138
f 102/102/102 101/101/101 138/138/138
f 138/138/138 101/101/101 139/139/139
f 101/101/101 100/100/100 139/139/139
f 139/139/139 100/100/100 140/140/140
f 100/100/100 98/98/98 140/140/140
f 140/140/140 98/98/98 141/141/141
f 98/98/98 99/99/99 141/141/141
f 141/141/141 99/99/99 142/142/142
f 99/99/99 121/121/121 142/142/142
f 142/142/142 121/121/121 143/143/143
f 121/121/121 120/120/120 143/143/143
f 143/143/143 120/120/120 144/144/144
f 120/120/120 119/119/119 144/144/144
f 144/144/144 119/119/119 145/145/145
f 119/119/119 118/118/118 145/145/145
f 145/145/145 118/118/118 123/123/123
f 139/139/139 140/140/140 146/146/146
f 147/147/147 139/139/139 146/146/146
f 147/147/147 146/146/146 148/148/148
f 149/149/149 147/147/147 148/148/148
f 150/150/150 147/147/147 149/149/149
f 151/151/151 150/150/150 149/149/149
f 152/152/152 150/150/150 151/151/151
f 153/153/153 152/152/152 151/151/151
f 154/154/154 152/152/152 153/153/153
f 155/155/155 154/154/154 153/153/153
f 156/156/156 154/154/154 155/155/155
f 157/157/157 156/156/156 155/155/155
f 158/158/158 156/156/156 157/157/157
f 159/159/159 158/158/158 157/157/157
f 160/160/160 158/158/158 159/159/159
f 161/161/161 160/160/160 159/159/159
f 162/162/162 160/160/160 161/161/161
f 163/163/163 162/162/162 161/161/161
f 164/164/164 162/162/162 163/163/163
f 165/165/165 164/164/164 163/163/163
f 166/166/166 164/164/164 165/165/165
f 167/167/167 166/166/166 165/165/165
f 168/168/168 166/166/166 167/167/167
f 169/169/169 168/168/168 167/167/167
f 170/170/170 168/168/168 169/169/169
f 171/171/171 170/170/170 169/169/169
f 172/172/172 170/170/170 171/171/171
f 173/173/173 172/172/172 171/171/171
f 174/174/174 172/172/172 173/173/173
f 175/175/175 174/174/174 173/173/173
f 176/176/176 174/174/174 175/175/175
f 177/177/177 176/176/176 175/175/175
f 178/178/178 176/176/176 177/177/177
f 179/179/179 178/178/178 177/177/177
f 180/180/180 178/178/178 179/179/179
f 181/181/181 180/180/180 179/179/179
f 182/182/182 180/180/180 181/181/181
f 183/183/183 182/182/182 181/181/181
f 184/184/184 182/182/182 183/183/183
f 185/185/185 184/184/184 183/183/183
f 186/186/186 184/184/184 185/185/185
f 187/187/187 186/186/186 185/185/185
f 188/188/188 186/186/186 187/187/187
f 189/189/189 188/188/188 187/187/187
f 190/190/190 188/188/188 189/189/189
f 191/191/191 190/190/190 189/189/189
f 192/192/192 190/190/190 191/191/191
f 193/193/193 192/192/192 191/191/191
f 146/146/146 192/192/192 193/193/193
f 148/148/148 146/146/146 193/193/193
f 146/146/146 140/140/140 192/192/192
f 140/140/140 141/141/141 192/192/192
f 192/192/192 141/141/141 190/190/190
f 141/141/141 142/142/142 190/190/190
f 190/190/190 142/142/142 188/188/188
f 142/142/142 143/143/143 188/188/188
f 188/188/188 143/143/143 186/186/186
f 143/143/143 144/144/144 186/186/186
f 186/186/186 144/144/144 184/184/184
f 144/144/144 145/145/145 184/184/184
f 184/184/184 145/145/145 182/182/182
f 145/145/145 123/123/123 182/182/182
f 182/182/182 123/123/123 180/180/180
f 123/123/123 122/122/122 180/180/180
f 180/180/180 122/122/122 178/178/178
f 122/122/122 124/124/124 178/178/178
f 178/178/178 124/124/124 176/176/176
f 124/124/124 125/125/125 176/176/176
f 176/176/176 125/125/125 174/174/174
f 125/125/125 126/126/126 174/174/174
f 174/174/174 126/126/126 172/172/172
f 126/126/126 127/127/127 172/172/172
f 172/172/172 127/127/127 170/170/170
f 127/127/127 128/128/128 170/170/170
f 170/170/170 128/128/128 168/168/168
f 128/128/128 129/129/129 168/168/168
f 168/168/168 129/129/129 166/166/166
f 129/129/129 130/130/130 166/166/166
f 166/166/166 130/130/130 164/164/164
f 130/130/130 131/131/131 164/164/164
f 164/164/164 131/131/131 162/162/162
f 131/131/131 132/132/132 162/162/162
f 162/162/162 132/132/132 160/160/160
f 132/132/132 133/133/133 160/160/160
f 160/160/160 133/133/133 158/158/158
f 133/133/133 134/134/134 158/158/158
f 158/158/158 134/134/134 156/156/156
f 134/134/134 135/135/135 156/156/156
f 156/156/156 135/135/135 154/154/154
f 135/135/135 136/136/136 154/154/154
f 154/154/154 136/136/136 152/152/152
f 136/136/136 137/137/137 152/152/152
f 152/152/152 137/137/137 150/150/150
f 137/137/137 138/138/138 150/150/150
f 150/150/150 138/138/138 147/147/147
f 138/138/138 139/139/139 147/147/147
f 196/196/196 195/195/195 194/194/194
f 196/196/196 197/197/197 195/195/195
f 198/198/198 196/196/196 194/194/194
f 199/199/199 196/196/196 198/198/198
f 200/200/200 196/196/196 199/199/199
f 201/201/201 196/196/196 200/200/200
f 202/202/202 196/196/196 201/201/201
f 203/203/203 196/196/196 202/202/202
f 196/196/196 204/204/204 197/197/197
f 203/203/203 205/205/205 196/196/196
f 196/196/196 206/206/206 204/204/204
f 205/205/205 207/207/207 196/196/196
f 196/196/196 208/208/208 206/206/206
f 207/207/207 209/209/209 196/196/196
f 196/196/196 210/210/210 208/208/208
f 209/209/209 211/211/211 196/196/196
f 196/196/196 212/212/212 210/210/210
f 213/213/213 212/212/212 196/196/196
f 214/214/214 213/213/213 196/196/196
f 215/215/215 214/214/214 196/196/196
f 216/216/216 215/215/215 196/196/196
f 217/217/217 216/216/216 196/196/196
f 218/218/218 196/196/196 211/211/211
f 218/218/218 217/217/217 196/196/196
f 213/213/213 219/219/219 212/212/212
f 219/219/219 220/220/220 212/212/212
f 212/212/212 220/220/220 210/210/210
f 221/221/221 219/219/219 213/213/213
f 214/214/214 221/221/221 213/213/213
f 222/222/222 221/221/221 214/214/214
f 215/215/215 222/222/222 214/214/214
f 223/223/223 222/222/222 215/215/215
f 216/216/216 223/223/223 215/215/215
f 224/224/224 223/223/223 216/216/216
f 217/217/217 224/224/224 216/216/216
f 225/225/225 224/224/224 217/217/217
f 218/218/218 225/225/225 217/217/217
f 226/226/226 225/225/225 218/218/218
f 211/211/211 226/226/226 218/218/218
f 227/227/227 226/226/226 211/211/211
f 209/209/209 227/227/227 211/211/211
f 228/228/228 227/227/227 209/209/209
f 207/207/207 228/228/228 209/209/209
f 229/229/229 228/228/228 207/207/207
f 205/205/205 229/229/229 207/207/207
f 230/230/230 229/229/229 205/205/205
f 203/203/203 230/230/230 205/205/205
f 231/231/231 230/230/230 203/203/203
f 202/202/202 231/231/231 203/203/203
f 231/231/231 202/202/202 232/232/232
f 202/202/202 201/201/201 232/232/232
f 232/232/232 201/201/201 233/233/233
f 201/201/201 200/200/200 233/233/233
f 233/233/233 200/200/200 234/234/234
f 200/200/200 199/199/199 234/234/234
f 234/234/234 199/199/199 235/235/235
f 199/199/199 198/198/198 235/235/235
f 235/235/235 198/198/198 236/236/236
f 198/198/198 194/194/194 236/236/236
f 236/236/236 194/194/194 237/237/237
f 194/194/194 195/195/195 237/237/237
f 238/238/238 237/237/237 195/195/195
f 197/197/197 238/238/238 195/195/195
f 239/239/239 238/238/238 197/197/197
f 204/204/204 239/239/239 197/197/197
f 240/240/240 239/239/239 204/204/204
f 206/206/206 240/240/240 204/204/204
f 241/241/241 240/240/240 206/206/206
f 208/208/208 241/241/241 206/206/206
f 242/242/242 241/241/241 208/208/208
f 210/210/210 242/242/242 208/208/208
f 220/220/220 242/242/242 210/210/210
f 241/241/241 243/243/243 240/240/240
f 243/243/243 244/244/244 240/240/240
f 240/240/240 244/244/244 239/239/239
f 243/243/243 245/245/245 244/244/244
f 245/245/245 246/246/246 244/244/244
f 245/245/245 247/247/247 246/246/246
f 247/247/247 248/248/248 246/246/246
f 246/246/246 248/248/248 249/249/249
f 248/248/248 250/250/250 249/249/249
f 249/249/249 250/250/250 251/251/251
f 250/250/250 252/252/252 251/251/251
f 251/251/251 252/252/252 253/253/253
f 252/252/252 254/254/254 253/253/253
f 255/255/255 253/253/253 254/254/254
f 256/256/256 255/255/255 254/254/254
f 257/257/257 255/255/255 256/256/256
f 258/258/258 257/257/257 256/256/256
f 259/259/259 257/257/257 258/258/258
f 260/260/260 259/259/259 258/258/258
f 261/261/261 259/259/259 260/260/260
f 262/262/262 261/261/261 260/260/260
f 263/263/263 261/261/261 262/262/262
f 264/264/264 263/263/263 262/262/262
f 265/265/265 263/263/263 264/264/264
f 266/266/266 265/265/265 264/264/264
f 265/265/265 266/266/266 267/267/267
f 266/266/266 268/268/268 267/267/267
f 267/267/267 268/268/268 269/269/269
f 268/268/268 270/270/270 269/269/269
f 269/269/269 270/270/270 271/271/271
f 270/270/270 272/272/272 271/271/271
f 271/271/271 272/272/272 273/273/273
f 272/272/272 274/274/274 273/273/273
f 273/273/273 274/274/274 275/275/275
f 274/274/274 276/276/276 275/275/275
f 275/275/275 276/276/276 277/277/277
f 276/276/276 278/278/278 277/277/277
f 277/277/277 278/278/278 279/279/279
f 278/278/278 280/280/280 279/279/279
f 279/279/279 280/280/280 281/281/281
f 280/280/280 282/282/282 281/281/281
f 281/281/281 282/282/282 283/283/283
f 282/282/282 284/284/284 283/283/283
f 283/283/283 284/284/284 285/285/285
f 284/284/284 286/286/286 285/285/285
f 285/285/285 286/286/286 287/287/287
f 286/286/286 288/288/288 287/287/287
f 287/287/287 288/288/288 289/289/289
f 288/288/288 290/290/290 289/289/289
f 289/289/289 290/290/290 291/291/291
f 290/290/290 292/292/292 291/291/291
f 291/291/291 292/292/292 245/245/245
f 292/292/292 247/247/247 245/245/245
f 287/287/287 289/289/289 293/293/293
f 294/294/294 287/287/287 293/293/293
f 285/285/285 287/287/287 294/294/294
f 295/295/295 285/285/285 294/294/294
f 283/283/283 285/285/285 295/295/295
f 296/296/296 283/283/283 295/295/295
f 281/281/281 283/283/283 296/296/296
f 297/297/297 281/281/281 296/296/296
f 279/279/279 281/281/281 297/297/297
f 298/298/298 279/279/279 297/297/297
f 277/277/277 279/279/279 298/298/298
f 299/299/299 277/277/277 298/298/298
f 275/275/275 277/277/277 299/299/299
f 300/300/300 275/275/275 299/299/299
f 273/273/273 275/275/275 300/300/300
f 301/301/301 273/273/273 300/300/300
f 271/271/271 273/273/273 301/301/301
f 302/302/302 271/271/271 301/301/301
f 269/269/269 271/271/271 302/302/302
f 303/303/303 269/269/269 302/302/302
f 267/267/267 269/269/269 303/303/303
f 304/304/304 267/267/267 303/303/303
f 265/265/265 267/267/267 304/304/304
f 305/305/305 265/265/265 304/304/304
f 265/265/265 305/305/305 263/263/263
f 305/305/305 306/306/306 263/263/263
f 263/263/263 306/306/306 261/261/261
f 306/306/306 307/307/307 261/261/261
f 261/261/261 307/307/307 259/259/259
f 307/307/307 308/308/308 259/259/259
f 259/259/259 308/308/308 257/257/257
f 308/308/308 309/309/309 257/257/257
f 257/257/257 309/309/309 255/255/255
f 309/309/309 310/310/310 255/255/255
f 255/255/255 310/310/310 253/253/253
f 310/310/310 311/311/311 253/253/253
f 251/251/251 253/253/253 311/311/311
f 312/312/312 251/251/251 311/311/311
f 249/249/249 251/251/251 312/312/312
f 313/313/313 249/249/249 312/312/312
f 246/246/246 249/249/249 313/313/313
f 244/244/244 246/246/246 313/313/313
f 244/244/244 313/313/313 239/239/239
f 313/313/313 312/312/312 238/238/238
f 239/239/239 313/313/313 238/238/238
f 312/312/312 311/311/311 237/237/237
f 238/238/238 312/312/312 237/237/237
f 236/236/236 237/237/237 311/311/311
f 310/310/310 236/236/236 311/311/311
f 235/235/235 236/236/236 310/310/310
f 309/309/309 235/235/235 310/310/310
f 234/234/234 235/235/235 309/309/309
f 308/308/308 234/234/234 309/309/309
f 233/233/233 234/234/234 308/308/308
f 307/307/307 233/233/233 308/308/308
f 232/232/232 233/233/233 307/307/307
f 306/306/306 232/232/232 307/307/307
f 231/231/231 232/232/232 306/306/306
f 305/305/305 231/231/231 306/306/306
f 231/231/231 305/305/305 230/230/230
f 305/305/305 304/304/304 230/230/230
f 230/230/230 304/304/304 229/229/229
f 304/304/304 303/303/303 229/229/229
f 229/229/229 303/303/303 228/228/228
f 303/303/303 302/302/302 228/228/228
f 228/228/228 302/302/302 227/227/227
f 302/302/302 301/301/301 227/227/227
f 227/227/227 301/301/301 226/226/226
f 301/301/301 300/300/300 226/226/226
f 226/226/226 300/300/300 225/225/225
f 300/300/300 299/299/299 225/225/225
f 225/225/225 299/299/299 224/224/224
f 299/299/299 298/298/298 224/224/224
f 224/224/224 298/298/298 223/223/223
f 298/298/298 297/297/297 223/223/223
f 223/223/223 297/297/297 222/222/222
f 297/297/297 296/296/296 222/222/222
f 222/222/222 296/296/296 221/221/221
f 296/296/296 295/295/295 221/221/221
f 221/221/221 295/295/295 219/219/219
f 295/295/295 294/294/294 219/219/219
f 219/219/219 294/294/294 220/220/220
f 294/294/294 293/293/293 220/220/220
f 220/220/220 293/293/293 242/242/242
f 293/293/293 314/314/314 242/242/242
f 293/293/293 289/289/289 314/314/314
f 289/289/289 291/291/291 314/314/314
f 314/314/314 291/291/291 243/243/243
f 291/291/291 245/245/245 243/243/243
f 314/314/314 243/243/243 241/241/241
f 242/242/242 314/314/314 241/241/241
f 317/317/317 316/316/316 315/315/315
f 318/318/318 317/317/317 315/315/315
f 319/319/319 317/317/317 318/318/318
f 320/320/320 319/319/319 318/318/318
f 321/321/321 319/319/319 320/320/320
f 322/322/322 321/321/321 320/320/320
f 323/323/323 321/321/321 322/322/322
f 324/324/324 323/323/323 322/322/322
f 325/325/325 323/323/323 324/324/324
f 326/326/326 325/325/325 324/324/324
f 327/327/327 315/315/315 316/316/316
f 328/328/328 327/327/327 316/316/316
f 331/331/331 330/330/330 329/329/329
f 332/332/332 331/331/331 329/329/329
f 331/331/331 332/332/332 333/333/333
f 332/332/332 334/334/334 333/333/333
f 333/333/333 334/334/334 335/335/335
f 334/334/334 336/336/336 335/335/335
f 335/335/335 336/336/336 337/337/337
f 336/336/336 338/338/338 337/337/337
f 337/337/337 338/338/338 339/339/339
f 338/338/338 340/340/340 339/339/339
f 343/343/343 342/342/342 341/341/341
f 344/344/344 343/343/343 341/341/341
f 341/341/341 342/342/342 345/345/345
f 342/342/342 346/346/346 345/345/345
f 345/345/345 346/346/346 347/347/347
f 346/346/346 348/348/348 347/347/347
f 347/347/347 348/348/348 349/349/349
f 348/348/348 350/350/350 349/349/349
f 349/349/349 350/350/350 351/351/351
f 350/350/350 352/352/352 351/351/351
f 351/351/351 352/352/352 353/353/353
f 352/352/352 354/354/354 353/353/353
f 353/353/353 354/354/354 355/355/355
f 354/354/354 356/356/356 355/355/355
f 359/359/359 358/358/358 357/357/357
f 360/360/360 359/359/359 357/357/357
f 357/357/357 358/358/358 361/361/361
f 358/358/358 362/362/362 361/361/361
f 361/361/361 362/362/362 363/363/363
f 362/362/362 364/364/364 363/363/363
f 363/363/363 364/364/364 365/365/365
f 364/364/364 366/366/366 365/365/365
f 365/365/365 366/366/366 367/367/367
f 366/366/366 368/368/368 367/367/367
f 367/367/367 368/368/368 369/369/369
f 368/368/368 370/370/370 369/369/369
